<?xml version="1.0" encoding="UTF-8"?>
<svg version="1.1" viewBox="0 0 2048 2045" width="1280" height="1280" xmlns="http://www.w3.org/2000/svg">
<path transform="translate(1165)" d="m0 0h86l5 16 6 18 2 9 2 4 3 24 4 18v53l-3 11-4 31-5 20-6 19-5 15-4 9-4 13-4 2-3 9-6 11-4 6-8 16-7 10-9 14-9 12-6 9-5 2-3 8-1 2h-2v2l-4 4-2 6 5 1 1 2h22l18-1 4-2 2 1v2l47 1 39 2 2 1v2l21 2 24 5 1 3 18 1 12 3 1 1 24 4 12 5 6 5 3 6v7l-6 12-3 2-2 16-6 16-2 10 11 1 27 11 12 5 21 9 16 6 24 12 11 3 5 5 6 5-2 4-6 4-15 2-8 3-18 4-15 5-8 4 4 4 7 3 3 7 6 3 11 12v2l4 2 8 9 6 8 7 9 10 16 11 19 10 18 13 30 3 10 5 12 4 15 3 15 4 15 3 18 4 38 1 6v60l-2 21-1 3-2 23-3 19-4 16-3 14-6 21-5 14-7 20-3 6-3 9-25 50-6 9-11 20-9 15-11 14-7 11-4 1h-2l-1 9-5 6-4 4-18 24-8 11h-2l-2 4-4 1-1 6-5 5-7 6-4 9-7 2-6 10-5 5-4 5-4 2-1 4-8 7h-2l-2 4-5 6-5 1-2 6-4 5-8 7-6 4-4 7-7 5-7 8-1 1h-5l-2 5-9 11-9 6-2 5-13 10-4 6-6 1-1 5-4 4-13 10-2 3h-2l-1 4-6 4-5 4-5 8-7 3-11 12-1 6 16-3 12-2 15-4 9-2 16-5 7-2 19-3 4-3 4-1 2-3 14-3 7-1 4-3 10-2v-2l10-4 4-3 10-3 6-4 2-4h2l3 11v17l-4 18-3 13-4 10-7 20-3 4v10l4 4 10 3 2 3 13 3 7 6v2l15 2 7 3 16 4 7 3 15 2 5 3 5 4-4 5-5 6-8 3-1 2-11 3h-4l-2 4-12 2-2 4-11 5-12 5-16 5-17 6-8 3-5 3 1 13 4 15 3 6 2 9 1 11 4 2 1 5-3 5-5 4-15 5-20 3-3 2-15 4-9 3-12 2-7 2-19 3-2 2-22 3h-13v2l-9 3-3 3-35 3-10 1-7 2-29 4-17 3-18 2-1 1-36 3-29 1v2l-2 1-25 3-2 1-42 2-9 2-3 3-4 2-2 6-12 20-10 17-6 13-9 20-6 14-5 16-3 3-3 14-4 14-4 16-3 20-2 1-1 11-1 37-1 16-1 5 1 1 3 41 2 12h-49l-4-10-12-36-3-17-4-17-1-13-1-3-2-21v-58l2-18 1-2 2-28 4-10 2-20 5-19 3-9 2-11v-5h-44l-1 26-2 13-1 12-4 11-4 12-8 18-9 15-9 12-8 10-17 17-12 9-11 8-11 7-16 9-10 4h-3l1-8 11-21 5-13 5-15 5-18 4-29 2-13v-26l-1-16-3-17-1-7-49-1-25-1-11-1v-2l-36-1-37-2-11-1-15-3-15-2-17-3-26-3-1-1-32-5-10-3-21-5-18-2-1-3-7-2-3-2-23-3-5-4-15-2-5-4-4-2 1-6 5-14 1-9 5-2 5-19 1-2v-12l-3-5-8-4-9-2-3-3-11-4-9-5v-2l-5-1-6-3-13-9-6-4-5-3-5-5-1-3-6-2-1-3-7-6-3-2-3-8-5-5-2-3-1-5-4-2-1-5 1-1 9-1v3l24 4v2l15 2 23-1 13-2 7-2 12-3 1-2 6-2 8-1v-9l-3-18-1-22 5-13 4-7 7-6 5-2 1-3h14l6 2v2l7 2 3 3 9 4 7 2 12 3 8 3 23 6 11 2 10 3 11 2-4-5-15-10-10-8-12-8-11-8-16-11-18-13-16-11-13-10-9-6-12-10-12-9-16-13-14-11-12-11-16-14-10-9-7-6-7-8-27-27-7-8-14-17-13-16-16-22-11-18-10-17-12-24-10-23-6-17-6-23-2-10-3-14-2-22-1-3v-33l2-3 1-25 5-19 3-15 5-17 6-15 12-25 12-21 6-8 10-14 15-16 2-4-10-6-6-5-5-3v-2l-10-3-8-8-6-3-3-3-1-5-9-2-2-4-3-1-7-9-6-2v-4l-5-2-4-6-5-8v-4l4 1 6 2 16 1 6 2 7 2 22 2 6 1v2l67 1 2-1v-9l-2-6-2-2-5-26-3-3-3-11-4-45-2-2v-18l1-1h12l3 8 8 3 6 8 7 4 13 10 1 2 6 3 1 3 9 2 3 2v2l5 2 3 3 12 3 5 4 8 2 2-6 10-23 4-14 2-11 3-7 2-1h18l18 2 1 2 13 2h30l23-2 5-1v-2l23-2v-2l26-4h2l-3-9-6-8-22-33-12-21-10-19-6-14-6-15-8-26-2-14-1-16-2-5 1-17 1-5 1-17 3-13 5-16 5-15 10-19 9-15 8-12 12-15 9-11 14-14 16-14 10-8 10-9 9-4 7 1 1 1v9l-6 21-4 16-3 25-1 28 2 26 2 17 6 24 8 23 11 24 10 19 12 20 15 22 13 18 15 20 9 11 4 1 12-2 6-3h2l1-5 13-3 1-3 8-2 3-1 3-3 6-2 1-3 7-1 5-2 1-2 8-3 3-3 11-2 2-4 14-2 3-8 11-2 4-4 10-2 1-3 10-4 9-4h2l1-3 9-3 3-3 8-3 4-3 4-1h10l1-7 5-2 8-2 2-3 9-2 2-3 11-3 13-12 7-9 9-11 10-11 5-6 5-5 12-13 13-15 13-14 5-4 3-6 8-6 4-6 9-8h2l2-4 4-6 11-10 4-6 5-1 5-9 14-13 4-6 11-11 11-14 10-11 10-13 8-10 4-4 5-10 5-6 7-10 8-13 5-8 10-19 4-6 3-10 3-3 8-21 8-23 2-12 3-11 2-17 1-1zm-129 587-18 3-5 3-5 2v2l-10 1-11 3-10 6-7 2-13 3-6 4-1 4-7 1-9 7-5 9-7 12-5 8-5 13-3 5-5 15-1 7-4 3-2 5-2 13-3 7-3 17-2 3-1 5-2 34-1 2v46l2 26 1 15 4 2-1 13-2 2-11-1-3-7-7-5-7-8-11-12-10-15-4-2-2-5-4-8-13-21-11-20-3-3-7-18-5-12-4-17-4-10-2-18-4-1-12 2-5 3-12 4-12 5 6 16 6 18 3 10 4 14 3 19 3 23-1 36-2 15-4 21-7 20-13 27-9 12-8 10-9 10-8 8-8 6-14 10-13 8-22 11h-6l-1-2v-7l4-6 3-9 13-26 3-8 3-9 6-28-1-15-4-18-1-12-4-9-2-9-5-12-7-15-8-16-11-19-7-11-4-5-4-3h-6l-7 3-5 3-9 3-11 1-2 1-1 3-4 3 9 10 11 15 11 19 12 28 3 10 2 6 2 12 2 5v10l-11-4-13-9-30-18-23-12-18-7-13-4-6-2-15-2h-5v10l1 12-3 3-28 5-1 1-40 2h-34l-26-1-3-3-4 1-10 7-10 8-5 5-12 11-6 8-8 10-8 13-10 21-5 14-5 26-1 2v34l5 25 6 22 10 24 11 20 10 15 10 14 11 14 9 10 7 8 9 10 76 76 8 7 11 11 8 7 14 14 11 9 5 5 16 15 10 9 10 10 8 7 8 8 8 7 10 9 14 14 11 9 15 15 7 8 8 7 23 23 7 9 14 14 9 11 7 7 9 11 9 10 9 11 8 10 8 11 3 4h95l1-1 10-1 2-2h4l1 3h27l62-1 2-1v-3h15l7-1 8-7 6-9 5-5 3-7v-4l6-1 10-15 7-7 11-17 2-3 5-2 4-9 5-5 8-10 7-8 9-12 9-10 8-10 13-15 10-11 8-11 7-6 6-9 6-5 5-8 6-3 11-14 9-8 4-6 8-8 7-8 14-15 8-10 5-5 10-11 5-4 5-7 5-5 6-7 3-5 8-6 4-9 6-2 7-10 5-6 4-4 4-6 12-13 10-13 10-14 10-13 5-8 5-5 6-9 13-19 5-9 4-5 7-12 3-4 2-6 9-13 7-15 14-28 6-17 6-16 5-17 2-6 3-6 4-30 2-10 1-35 1-3-2-15-2-16-4-22-5-11-7-20-9-17-7-11-9-14-3-3h-2l-2-6-12-11-2-4-11-8-15-11-2-3-8-3-16-9-13-6-7-3-22-5-19-5-2-1-36-1-24 1-29 5-21 6-20 7-16 7-4 4-10 3-11 8-9 5-13 10-11 9-6 5-1 4-9 3-6 8-14 14-11 14-3 6-8 8-5 10-11 12-6 3h-5l-4-6-2-7 1-7 1-34 2-11 1-11 5-17 3-9 2-5 2-8 3-5 3-9 9-13 11-18 5-6 7-9 16-17 5-4 3-7 8-4 7-6 9-7 5-6 1-4z" fill="#DD652F"/>
<path transform="translate(1165)" d="m0 0h3l1 8v36l-2 20-3 16-9 30-6 16-4 13-5 7h-3l-2 6-6 11-12 19-12 22-8 11-4 4-7 11-11 13-12 13-7 8-10 11-1 2h-2l-2 4-14 15h-2v2l-5 5-3 5h-2l-2 6-3 2h-3l-1 3-5 2v2l-3 3h-2l-1 4-5 5-5 6-7 6-6 8-10 10-7 8-8 8-6 5-7 8-7 9-12 12-5 6h-2l-2 4-5 8h-2v2l-8 7-8 10-10 10h-2l-2 4-12 15-16 23-11 17-11 19-9 19-2 4-15 4-26 6 2 4 7 38 5 26-1 20v39l4 27 1 9-2-2-3-8-2-18-15 2-5 3-12 4-11 4 6 16 6 18 3 10 4 14 3 19 3 23-1 36-2 15-4 21-7 20-13 27-9 12-8 10-9 10-9 9-8 6-14 10-13 8-22 11h-6l-2-3v-7l4-6 3-9 13-26 3-8 3-9 6-28-1-15-4-18-1-12-4-9-2-9-5-12-7-15-8-16-11-19-7-11-7-7h-6l-7 3-5 3-9 3-13 1-1 4-3 2 9 10 11 15 11 19 12 28 3 10 2 6 2 12 2 5v8l-1 2-7-1-14-9-26-16-18-10-17-8-17-6-15-5-20-3 2 17v5l-4 4-28 5-1 1-40 2h-34l-26-1-3-3-4 1-10 7-10 8-5 5-11 10-6 8-8 10-8 13-10 21-5 14-5 26-1 2v34l5 25 6 22 10 24 11 20 10 15 10 14 11 14 9 10 7 8 9 10 75 75 8 7 11 11 8 7 14 14 11 9 3 3v2l4 2 13 12 12 11 9 9 8 7 8 8 8 7 10 9 14 14 11 9 16 16 6 7 8 7 24 24 7 9 14 14 9 11 7 7 9 11 9 10 9 11 8 10 8 11 2 6h-14l-72-3-46-3-5-2-13-12-11-9-17-14-20-15-1-1-1 3-4 42h-8l-44-7-42-9-32-9-13-5 1-3 54-9 49-11 37-10-2-1-18-2-10-3-14-10-8-4-11-8-16-12-6-4-16-11-17-12-18-13-10-7-12-9-9-6-12-10-12-9-16-13-14-11-12-11-16-14-10-9-7-6-7-8-27-27-7-8-14-17-13-16-16-22-11-18-10-17-12-24-10-23-6-17-6-23-2-10-3-14-2-22-1-3v-33l2-3 1-25 5-19 3-15 5-17 6-15 12-25 12-21 6-8 10-14 15-16 2-4-10-6-6-5-5-3v-2l-10-3-8-8-6-3-3-3-1-5-9-2-2-4-3-1-7-9-6-2v-4l-5-2-4-6-5-8v-4l4 1 6 2 16 1 6 2 7 2 22 2 6 1v2l67 1 2-1v-9l-2-6-2-2-5-26-3-3-3-11-4-45-2-2v-18l1-1h12l3 8 8 3 6 8 7 4 13 10 1 2 6 3 1 3 9 2 3 2v2l5 2 3 3 12 3 5 4 8 2 2-6 10-23 4-14 2-11 3-7 2-1h18l18 2 1 2 13 2h30l23-2 5-1v-2l23-2v-2l26-4h2l-3-9-6-8-22-33-12-21-10-19-6-14-6-15-8-26-2-14-1-16-2-5 1-17 1-5 1-17 3-13 5-16 5-15 10-19 9-15 8-12 12-15 9-11 14-14 16-14 10-8 10-9 9-4 7 1 1 1v9l-6 21-4 16-3 25-1 28 2 26 2 17 6 24 8 23 11 24 10 19 12 20 15 22 13 18 15 20 9 11 4 1 12-2 6-3h2l1-5 13-3 1-3 8-2 3-1 3-3 6-2 1-3 7-1 5-2 1-2 8-3 3-3 11-2 2-4 14-2 3-8 11-2 4-4 10-2 1-3 10-4 9-4h2l1-3 9-3 3-3 8-3 4-3 4-1h10l1-7 5-2 8-2 2-3 9-2 2-3 11-3 13-12 7-9 9-11 10-11 5-6 5-5 12-13 13-15 13-14 5-4 3-6 8-6 4-6 9-8h2l2-4 4-6 11-10 4-6 5-1 5-9 14-13 4-6 11-11 11-14 10-11 10-13 8-10 4-4 5-10 5-6 7-10 8-13 5-8 10-19 4-6 3-10 3-3 8-21 8-23 2-12 3-11 2-17 1-1z" fill="#FCED5F"/>
<path transform="translate(816,966)" d="m0 0h27l23 4 17 3 20 6 5 2 13 3 22 12 16 10 15 10 9 7 5 5 16 14 12 14 9 11 10 14 12 22 8 15 9 25 7 24 5 28 1 15v27l-3 29-6 28-4 15-3 7-3 10-7 16-6 10-3 6-8 15-10 13-14 18-24 24-19 14-14 10-17 8-7 4-18 8-21 7-13 2h-16v2l-10 2-13 1h-14l-20-1-7-2-1-1-24-2-11-3-14-5-10-4-16-7-10-6-12-6-9-7-11-8-9-7-10-9-16-16-10-14-12-15-6-10-6-12-4-6-11-29-4-15-1-14-3-1-3-12-2-21-3-8-1-10v-16l1-12 3-11 2-22 4-11 2-16 8-21 9-20 11-19 10-15 8-10 7-9 4-6 5-5 11-10 7-6h2v-2l9-7 12-9 35-21 6-2 8-3 9-2 11-4 12-3 7-2 22-3z" fill="#FDFDFD"/>
<path transform="translate(182,824)" d="m0 0 4 1 29 15 19 9 29 11 37 10 42 8v2l-13 9-7 6-4 6-11 10-6 8-8 10-8 13-10 21-5 14-5 26-1 2v34l5 25 6 22 10 24 11 20 10 15 10 14 11 14 9 10 7 8 9 10 75 75 8 7 11 11 8 7 14 14 11 9 3 3v2l4 2 13 12 12 11 9 9 8 7 8 8 8 7 10 9 14 14 11 9 16 16 6 7 8 7 24 24 7 9 14 14 9 11 7 7 9 11 9 10 9 11 8 10 8 11 2 6h-14l-72-3-46-3-5-2-13-12-11-9-17-14-20-15-1-1-1 3-4 42h-8l-44-7-42-9-32-9-13-5 1-3 54-9 49-11 37-10-2-1-18-2-10-3-14-10-8-4-11-8-16-12-6-4-16-11-17-12-18-13-10-7-12-9-9-6-12-10-12-9-16-13-14-11-12-11-16-14-10-9-7-6-7-8-27-27-7-8-14-17-13-16-16-22-11-18-10-17-12-24-10-23-6-17-6-23-2-10-3-14-2-22-1-3v-33l2-3 1-25 5-19 3-15 5-17 6-15 12-25 12-21 6-8 10-14 15-16z" fill="#3B4B8C"/>
<path transform="translate(1398,823)" d="m0 0 2 4 3 14 2 3 4 24v31l-1 9-1 6-2 16-4 16-4 13-2 12-7 21-2 3-3 9-5 12-6 12-4 9-5 10-1 3h-2l-2 5-6 10-7 14h-2l-1 6-7 12-7 10-7 11-5 4-10 14-8 11-3 5-6 7-4 7-14 16-7 9-4 6h-2v3h-2l-2 4-9 12-7 9h-2v2h-2l-2 4-4 5h-2v2h-2l-2 4-6 7h-2v2l-5 5-7 9-6 5-7 8-7 7-4 5-7 8-9 11h-2l-5 10h-2l-2 4h-2l-2 4-9 9-8 7-12 13-8 10h-2l-2 4-12 14-5 5-6 8-4 5-7 8-7 9-12 14-15 15-7 10-9 12-9 10-3 1v2h-2l-2 4-3 4-5 9-21 28-10 13-6 5-7 8-10 12h-2l-2 4-7 10-16 24-14 22-14 24-11 23-3 5h-1l-2-31-1-16-19-1 2 65v13l5-1-1 6-15 42-9 33-1 5v7l1 4-2 5v9l-2 4-1 10-1 16-1 7v15l-1 26v59l3 25v5l-2-3-4-17-1-13-1-3-2-21v-58l2-18 1-2 2-28 4-10 2-20 5-19 3-9 2-11v-5h-44l-1 26-2 13-1 12-4 11-4 12-8 18-9 15-9 12-8 10-17 17-12 9-11 8-11 7-16 9-10 4h-3l1-8 11-21 5-13 5-15 5-18 4-29 2-13v-26l-1-16-3-17-1-7-49-1-25-1-11-1v-2l-36-1-37-2-11-1-15-3-15-2-17-3-26-3-1-1-32-5-10-3-21-5-18-2-1-3-7-2-3-2-23-3-5-4-15-2-5-4-4-2 1-6 5-14 1-9 5-2 5-19 1-2v-12l-3-5-8-4-9-2-3-3-11-4-9-5v-2l-5-1-6-3-13-9-6-4-5-3-5-5-1-3-6-2-1-3-7-6-3-2-3-8-5-5-2-3-1-5-4-2-1-5 1-1 9-1v3l24 4v2l15 2 23-1 13-2 7-2 12-3 1-2 6-2 8-1v-9l-3-18-1-22 5-13 4-7 7-6 5-2 1-3h14l6 2v2l7 2 3 3 9 4 7 2 12 3 8 3 23 6 11 2 10 3 11 2-4-6 4 2 15 10 15 3 16 2-3 2-29 8-43 10-31 6-37 6-1 2 11 3 19 6 28 7 40 8 41 6v-12l3-30 2-4 18 14 16 13 11 9 12 11 6 5 15 2 54 3 53 2h13v-3l1 1h95l1-1 10-1 2-2 5 1v3l27-1 64-1v-3l22-2 7-6 7-10 5-5 3-10 6-2 9-14 7-7 11-17 3-4 5-2 3-8 5-5 8-10 7-8 9-12 9-10 8-10 13-15 10-11 9-12 6-5 6-9 6-5 6-9 6-3 10-13 9-8 4-6 8-8 7-8 14-15 9-11 5-5 10-11 5-5 5-6 5-5 5-6 3-5 8-6 5-10 6-1 2-5 9-11 4-4 4-6 12-13 10-13 10-14 10-13 6-9h2l2-4 6-9 13-19 5-9 4-5 7-12 3-4 2-6 9-13 7-15 14-28 6-17 6-16 5-17 2-6 3-6 4-30 2-10 1-35 1-3-2-15-2-16-2-10z" fill="#FCED5F"/>
<path transform="translate(1168)" d="m0 0h83l5 16 6 18 2 9 2 4 3 24 4 18v53l-3 11-4 31-5 20-6 19-5 15-4 9-4 13-4 2-3 9-6 11-4 6-8 16-7 10-9 14-9 12-6 9-5 2-12 16-9 11-15 16-7 8-11 12-10 10-7 8-9 10-5 4 1 3 9 6 6 8 5 11 1 3v9l-4 12-7 11-9 7-14 6-5 1h-14l-9-2-9-5-9-8-1-2h-3l-9 12-5 2 2 14v6l-20 5-6 4-10 10-7 8-9 11-11 13-15 20-14 22-11 19-11 23-8 21-4 11-5 17-6 28-3 27-1 25v36l2 26-1 13-4 1h-2l-3-5-2-1v-2h-2l-7-8-5-5-3-5-11-15-3-6v-2l-4-1-10-17-8-14-8-15-11-24v-2h-7l-7-21-5-28-1-9v-39l1-20-11-58-2-7-1-3 9-3 31-7 2-1 5-12 11-21 12-19 11-16 10-14 11-14 17-17 8-10 4-4h2v-2h2l2-4 5-8 4-4h2l2-4 10-10 7-9 12-13 8-7 7-7 7-8 7-7 6-8 6-5 4-5 5-5 1-3h2l1-3h2v-2l5-3 1-2 6-2 2-6 2-1 4-7 4-2v-2l8-7 9-10 1-2h2l2-4 11-12 10-11 7-8 11-13 9-14 5-5 10-17 9-16 12-19 6-12 4-2 3-5 6-19 6-15 6-23 3-12 2-13 1-13z" fill="#DD652F"/>
<path transform="translate(816,966)" d="m0 0h27l23 4 17 3 20 6 5 2 13 3 22 12 16 10 15 10 9 7 5 5 16 14 12 14 9 11 10 14 12 22 8 15 9 25 7 24 5 28 1 15v27l-3 29-6 28-4 15-3 7-3 10-7 16-6 10-3 6-8 15-10 13-14 18-24 24-19 14-14 10-17 8-7 4-18 8-21 7-13 2h-16v2l-10 2-13 1h-14l-20-1-7-2-1-1-24-2-11-3-14-5-10-4-16-7-10-6-12-6-9-7-11-8-9-7-10-9-16-16-10-14-12-15-6-10-6-12-4-6-11-29-4-15-1-14-3-1-3-12-2-21-3-8-1-10v-16l1-12 3-11 2-22 4-11 2-16 8-21 9-20 11-19 10-15 8-10 7-9 4-6 5-5 11-10 7-6h2v-2l9-7 12-9 35-21 6-2 8-3 9-2 11-4 12-3 7-2 22-3zm103 24 3 6-3-1-1 6 19 8 13 7 17 12 14 11 12 10-2 1-10-4-9-7-17-13-12-9-3-1-1-2-5-3-10-7-4-2-10 1-31 8-17 7-12 6-9 4-5 3-7 3-9 7-5-1-8-7-16-12-19-10-22-7h-4l-1-3h-7l-2-8-19 9-19 11-14 10-13 11v2h-2l-3 5 7 1h3l-2 5-13 30-6 16-5 20v5l10 8 12 9 16 11 10 9 5 6 8-6 10-9 14-10 16-11 15-10 25-14 15-9h4l13 10 12 9 13 11 8 7 7 7 8 7 8 10 10 13 6 8 3 3 17-5 27-6 8-2h5l-12 5-29 7-18 3-8 27-6 15-3 7-6 16-11 22-9 14 2 5 7 11 8 15 8 17 2 10 3 8v3l-8-16-14-26-8-16-3-7-7 2h-77l-25-4-8-1-9 10-11 13-11 14-13 16-6 8-3 3 1 6 21 42 12 18 10 18 8 11 6 7 28 5 41 5 12 1h14l11-2 6-4 4-5 12-20 8-13 11-21 5-13 1-6 15 3 6 1h12l3 2h11l1-2-4-1-2 1v-2l7-1 23-4 16-2 25-5 3 28 4 1 5-5 8-10 6-9 2-1 3-8 5-9 4-5 8-16 9-23 5-23 4-18 1-7v-9l-9 2-6 3-6 1-4-8-11-26-11-22-8-12-11-17-9-10-2-4 1-6 5-11 6-18 3-16v-8l3-18 1-5 6-1-1-6-7-9-9-10-19-19-11-9-18-13-16-9-17-9z" fill="#2F2F34"/>
<path transform="translate(1286,1399)" d="m0 0 1 3-5 5-13 10-2 3h-2l-1 4-6 4-5 4-5 8-7 3-11 12-1 6 16-3 12-2 15-4 9-2 16-5 7-2 19-3 4-3 4-1 2-3 14-3 7-1 4-3 10-2v-2l10-4 4-3 10-3 6-4 2-4h2l3 11v17l-4 18-3 13-4 10-7 20-3 4v10l4 4 10 3 2 3 13 3 7 6v2l15 2 7 3 16 4 7 3 15 2 5 3 5 4-4 5-5 6-8 3-1 2-11 3h-4l-2 4-12 2-2 4-11 5-12 5-16 5-17 6-8 3-5 3 1 13 4 15 3 6 2 9 1 11 4 2 1 5-3 5-5 4-15 5-20 3-3 2-15 4-9 3-12 2-7 2-19 3-2 2-22 3h-13v2l-9 3-3 3-35 3-10 1-7 2-29 4-17 3-18 2-1 1-36 3-29 1v2l-2 1-25 3-2 1-42 2-9 2-3 3-4 1 2-5 8-11 11-16 10-13 2-4 16-1 14-4 8-5 1-2v-15l-10 4-12 5-3-1 9-9 7-9 12-14 7-10 3-2 1 1 5 40 1 6v10l24-3 28-4 6-2-2-10-1-2-13 1-18 2h-6l-2-13-4-31-2-16 8-7 7-8 14-15 12-13 12-12 8-7 12-12 7-8 30-30 8-7 4-3 5 23 3 21 34-6 52-11 43-11 8-2h6l-1-2-22-5-53-9-46-10-8-2-2-3 15-16 10-9 11-10 8-7 7-7 8-7 8-8 11-9z" fill="#FCED5F"/>
<path transform="translate(1179,353)" d="m0 0 1 2-3 6h-2v2l-4 4-2 6 5 1 1 2h22l18-1 4-2 2 1v2l47 1 39 2 2 1v2l21 2 24 5 1 3 18 1 12 3 1 1 24 4 12 5 6 5 3 6v7l-6 12-3 2-2 16-6 16-2 10 11 1 27 11 12 5 21 9 16 6 24 12 11 3 5 5 6 5-2 4-6 4-15 2-8 3-18 4-15 5-10 5-4-3v-2l-5-2-15-10-17-10-16-8-22-10-18-6-24-6-30-5-34-2h-13l-38 3-18 3-22 5-24 7-27 10-25 12-21 12-20 13-16 11-28 22-3 3-2-1 7-8 1-4-19 3-5 3-4 1-1 2-19 4-7 4-5 3-7 2-13 3-5 3-2 4-9 3-6 5-5 9-7 12-5 8-5 13-3 5-5 15-1 7-4 3-2 5-2 13-3 7-3 17-2 3-1 5-2 34-1 2v46l2 26 1 15 3 2v13l-3 3-11-1-3-6v-2l-4-2-8-7-9-11-7-8-8-12-5-5-5-10-13-21-10-18v-2l-3-1-8-20-5-12-3-12 1-4 6 18v3h7l9 19 11 22 6 10 6 11 6 10 3 1 6 11 15 20 5 5v2l3 1v2h2v2l4 2 1 4 5-1 1-13-2-26v-40l2-31 3-23 8-33 5-15 8-20 9-20 9-17 12-19 10-15 10-13 11-13 11-14 16-17 6-5 13-4 9-1-2-12v-8l6-4 8-11 4 1 6 7 10 6 5 2 6 1h14l13-4 9-5 6-5 7-12 3-10v-9l-5-12-6-9-11-8 2-4 10-9 7-8 9-10 11-11 7-8 11-12 9-10 11-14z" fill="#FCED5E"/>
<path transform="translate(534,243)" d="m0 0 7 1 1 1v9l-6 21-4 16-3 25-1 28 2 26 2 17 6 24 8 23 11 24 10 19 12 20 15 22 13 18 15 20 9 11 1 5h-2l-1 3-37 16-39 15-36 13-21 6-4-1-4-6-5-4-7-11-18-27-12-21-10-19-6-14-6-15-8-26-2-14-1-16-2-5 1-17 1-5 1-17 3-13 5-16 5-15 10-19 9-15 8-12 12-15 9-11 14-14 16-14 10-8 10-9z" fill="#3B4B8C"/>
<path transform="translate(919,990)" d="m0 0 6 2 24 13 12 8 12 9 14 12 22 22 9 12 1 6-6 1-3 17-2 20-4 17-2-4-3 7-10 19-6 8-8 5-9 3-17 1 2-2 4-2-9 1-26 6-20 5-3 1-8-11-11-14-8-10-16-15-10-9-14-11-19-14-4-2-9 6-25 14-18 11-18 13-12 8-14 12-8 6-9-10-10-8-12-8-13-10-9-7 1-10 7-24 13-30 5-10v-2h-8l-2-2 3-4h2l2-4 11-9 14-10 16-9 21-11h1l2 8h7l1 3 8 1 20 7 20 11 15 12 8 6 4-1 9-7 10-4 4-3 6-2 8-4 14-6 14-5 28-7h6l13 8 3 3 3 1 1 2 7 4 18 14 15 11 6 3 6 2v-2l-13-11-20-15-16-10-15-7-10-4 1-6h3z" fill="#FDFDFD"/>
<path transform="translate(807,1090)" d="m0 0 4 2 19 14 11 9 13 11 9 9 8 7 9 11 10 13 6 8 2 2 17-5 27-6 8-2h6l-2 3-18 6-33 7h-7l-1 8-10 30-4 7-4 13-14 29-9 14 2 5 7 11 8 15 8 17 2 10 3 8 1 7-3-4-8-16-14-26-8-16-2-6-7 2h-77l-25-4-9-1-1-5-6-13-8-29-7-28-6-31v-14l11-12 14-11 15-10 17-12 28-16 17-10z" fill="#080807"/>
<path transform="translate(205,635)" d="m0 0h12l3 8 8 3 6 8 7 4 13 10 1 2 6 3 1 3 9 2 3 2v2l5 2 3 3v2l6 2 15 7 3 1-1 8-19 51-10 27-3 10v4l30 20 24 13 28 12 36 12 28 7 31 6 20 3 11 1-2 3-28 5-1 1-40 2h-34l-26-1-3-3-4 1-10 7-10 8-2-1 13-11 6-4h2v-2l-11-1-35-7-33-9-29-11-29-14-19-10-4-1-3 3v-3l-10-6-6-5-5-3v-2l-10-3-8-8-6-3-3-3-1-5-9-2-2-4-3-1-7-9-6-2v-4l-5-2-4-6-5-8v-4l4 1 6 2 16 1 6 2 7 2 22 2 6 1v2l67 1 2-1v-9l-2-6-2-2-5-26-3-3-3-11-4-45-2-2v-18z" fill="#FCC630"/>
<path transform="translate(733,1281)" d="m0 0 33 5h77l7-2 5 12 10 19 10 18 5 11 3 8v5l-2 7v18l2 10-2 3h-4l-2 5-5 9-9 14-10 11-7 8-6 5-3 1-21 1-25-2-28-4-12-4-10-6-11-8v2l-6-2-11-19-7-10-12-23-11-22-1-6 8-9 10-13 13-16 9-11 11-12z" fill="#FDFDFD"/>
<path transform="translate(730,721)" d="m0 0 3 1 4 5 7 19 5 14 5 19 3 19 3 23-1 36-2 15-4 21-7 20-13 27-9 12-8 10-9 10-9 9-8 6-14 10-13 8-22 11h-6l-2-3v-7l4-6 3-9 13-26 3-8 3-9 6-28-1-15-4-18-1-12-4-9-2-9-5-12-7-15-8-16-11-19-6-10-4-7-3-5 15-7 27-11 25-10 34-15z" fill="#3B4B8D"/>
<path transform="translate(647,1123)" d="m0 0 5 2 20 15 18 13 12 11 2 6 7 37 11 43 5 17 6 13-5 5-10 8-12 12-1 2h-2v2l-4 4-4 7-10 11-6 8h-2l2 2-1 6-1 1h-16l-5-2v-2l11-6-12 5-6-1-3-2v-2l9-2v-2h-7l-2-1-5 3-2-3 2-1 1-3-6-1-10-5-5-2-6 1v-5l6-1-4-15-5-26-4-32-2-28v-18l7-17 10-21 12-18 10-14z" fill="#FDFDFD"/>
<path transform="translate(1286,1399)" d="m0 0 1 3-5 5-13 10-2 3h-2l-1 4-6 4-5 4-5 8-7 3-11 12-1 6 16-3 12-2 15-4 9-2 16-5 7-2 19-3 4-3 4-1 2-3 14-3 7-1 4-3 10-2v-2l10-4 4-3 10-3 6-4 2-4h2l3 11v17l-4 18-3 13-4 10-7 20-3 4v10l4 4 10 3 2 3 13 3 7 6v2l15 2 7 3 16 4 7 3 15 2 5 3 5 4-4 5-5 6-8 3-1 2-11 3h-4l-2 4-12 2-5 3-17 7-40 14-14 4-5-12-13-45-6-22-4-14v-3h-2l-1-2-22-5-53-9-46-10-8-2-2-3 15-16 10-9 11-10 8-7 7-7 8-7 8-8 11-9z" fill="#FCC630"/>
<path transform="translate(730,1282)" d="m0 0h2l-2 4-11 12-9 11-22 28-7 8 1 6 21 42 12 18 10 18 8 11 5 6 28 5 41 5 12 1h14l11-2 6-4 6-9 14-23 12-22 7-17h2l1-4 11 3 8 2 16 1 11-1 3-1 1-3 31-4 26-5 4-1 1 9 1 28-4 4-5 3-14 13-14 11-16 12-8 5-3 3-9 4-4 4-21 9-21 6-5 1h-12l-5-4-8-7-7-7-8 1-6 1h-33l-35-5-27-6h-6l-4 3-1 4-24-13-9-6-10-5-7-7-11-9-4 1-19-19-2-3v-5l-9-12-2-5h-2l-7-11-13-24-1-5 7-9 3-3 7 1 12 5 1 5 4-1 4-2 1 1 7 1v2l-5 2h-4l3 3 6 1 11-5 3 1-10 6h-3v2l5 1h16l1-5-1-3 5-5 9-11 6-7 4-7h2v-2h2l2-4 14-14z" fill="#080807"/>
<path transform="translate(349,1448)" d="m0 0h14l6 2v2l7 2 3 3 9 4 7 2 12 3 8 3 23 6 11 2 10 3 11 2-4-6 4 2 15 10 15 3 16 2-3 2-29 8-43 10-31 6-37 6-1 9-7 18-10 27-13 36-3 7-7-1-22-9-22-10-14-8-9-6-12-9-13-11-11-11-4-5-5-5-2-3-1-5-4-2-1-5 1-1 9-1v3l24 4v2l15 2 23-1 13-2 7-2 12-3 1-2 6-2 8-1v-9l-3-18-1-22 5-13 4-7 7-6 5-2z" fill="#FCC630"/>
<path transform="translate(559,790)" d="m0 0 3 1v2l4 2 10 12 9 13 10 17 12 28 3 10 2 6 2 12 2 5v8l-1 2-7-1-14-9-26-16-18-10-17-8-17-6-15-5-20-3 2 17v5l-1 1h-12l-37-6-35-8-32-10-28-11-17-8-23-13-22-15-4-3v-3l9 2 16 5 25 6 16 3 39 4h32l39-3 27-4 23-4 33-8z" fill="#3B4B8C"/>
<path transform="translate(701,1745)" d="m0 0h93v14l-1 34-2 9-3 8-4 12-8 18-9 15-9 12-8 10-17 17-12 9-11 8-11 7-16 9-10 4h-3l1-8 11-21 5-13 5-15 5-18 4-29 2-13v-26l-1-25-2-17z" fill="#3C4C8D"/>
<path transform="translate(1022,1199)" d="m0 0 3 3 12 24 12 29 1 1 8-2 10-4h3v9l-4 22-7 28-8 21-8 16-5 6-4 8-3 8-5 5-9 13-7 7-4-1-3-28-25 5-28 4-14 3h-4v2l4-1 2 2-1 1h-11l-4-2h-11l-16-3-5-1-3 12-8 16-10 19-13 21-6 9-5 4-5 2-8 1h-14l-37-4-28-4-16-3-8-9-7-11 2-2 2 1 1-2 14 10 12 6 13 3 31 4 23 1 14-1 7-4 7-7 9-11 7-9 9-16 3-5 4-2 1-2-2-9v-18l2-7-1-7-1-4 3 3v-3l1-4 5 8 7 6 15 7 10 2h17l39-5 10-3 15-9 6-9 8-19 8-18 5-11 4-9 2-19 2-13 3-5-2-9-8-19-8-16z" fill="#DBD0BE"/>
<path transform="translate(1020,1072)" d="m0 0 5 5 6 8 16 28 5 2 7 18 1 11 2 6 7 28 3 19 1 10v30l-3 7-11 6-3 3-5 1-3-4-10-25-8-18-9-15-9-13-8-11-6-6-3-1-2-4 1-6 5-11 6-18 3-16v-8l3-18 2-6 6-1z" fill="#080807"/>
<path transform="translate(730,1282)" d="m0 0h2l-2 4-11 12-9 11-22 28-7 8 1 6 21 42 12 18 10 18 8 11 5 6 28 5 41 5 12 1h14l11-2 4-1 1 4 2 4-6-1-10 2h-33l-35-5-27-6h-6l-4 3-1 4-24-13-9-6-10-5-7-7-11-9-4 1-19-19-2-3v-5l-9-12-2-5h-2l-7-11-13-24-1-5 7-9 3-3 7 1 12 5 1 5 4-1 4-2 1 1 7 1v2l-5 2h-4l3 3 6 1 11-5 3 1-10 6h-3v2l5 1h16l1-5-1-3 5-5 9-11 6-7 4-7h2v-2h2l2-4 14-14z" fill="#080807"/>
<path transform="translate(813,972)" d="m0 0h30l22 3 21 4 20 6h4v-2l7 1 1 4-2 1 3 3v7l-1 2 5 1 16 7 11 6 17 12 14 11 13 11-3 2-10-4-9-7-17-13-12-9-4-2v-2l-4-1-8-6-7-4-10 1-31 8-17 7-12 6-9 4-5 3-7 3-9 7-5-1-8-7-16-12-19-10-6-2v-2l-6-2-21-8-2-2v-6l10-4 8-3 19-5 28-5z" fill="#080808"/>
<path transform="translate(272,796)" d="m0 0 9 2 16 5 25 6 16 3 39 4h32l39-3 18-3h9v12l3 3v20l4 3h-2l1 11 1 1 1 12-1 1h-12l-37-6-35-8-32-10-28-11-17-8-23-13-22-15-4-3z" fill="#464963"/>
<path transform="translate(914,983)" d="m0 0 7 1 22 12 16 10 15 10 9 7 5 5 16 14 12 14 9 11 10 14 12 22 8 15 9 25 7 24 5 28 1 15v27l-3 29-6 28-4 15-3 7-3 10-7 16-6 10-3 6-8 15-10 13-14 18-24 24-19 14-14 10-17 8-7 4-18 8-21 7-13 2h-16v2l-10 2-13 1h-14l-20-1-7-2-1-1-24-2-11-3-14-5-10-4-16-7-10-6-12-6-9-7-11-8-9-7-10-9-16-16-10-14-12-15-6-10-6-12-4-6 1-3v2l5-1 13 24 5 7v2h2l8 12 4 5v5l9 10 11 11 4-1 15 13 5 4 11 6 15 9 15 8 1-4 4-3 10 1 29 6 29 4h33l10-2 5 1 12 12 6 4 1 1h12l20-5 25-10 4-2 4-4 9-3 2-4 11-7 12-9 11-9 10-9 8-7 6-4 1-1-1-28-1-8-22 5-29 4h-9l-1 4-3 1-14 1-13-1-17-5h-2l-2 3 1-6 8 1 13 2h12l3 2h11l-5-1v-2l18-4 12-2 16-2 19-4h6l1 2 3 26 4-1 3-1 2-4 7-10 6-8h2l1-7 4-6 3-5 4-6 10-21 6-16 5-23 4-18 2-16-11 4-4 2-7 1-15-35-11-22-8-12-11-17-8-9h3l8 8 20 30 8 15 10 25 5 12 3 1 15-9 2-1 2-6v-30l-3-23-6-27-3-10-1-3-1-11-6-15v-3l-5-1-5-8-10-18-7-10-7-7-3-6-11-13-21-21-11-9-18-13-16-9-17-9 2 4-2 2-6-8 2-4z" fill="#4F4F55"/>
<path transform="translate(1406,479)" d="m0 0 20 6 25 10 24 10 26 11 26 12 18 9-2 4-6 4-15 2-8 3-18 4-15 5-10 5-4-3v-2l-5-2-15-10-17-10-16-8-20-9 10-38z" fill="#FCC72F"/>
<path transform="translate(784,1629)" d="m0 0h16l12 4 11 7 8 11 3 5 1 4v18l-4 10-11 12-14 7-4 1h-21l-13-5-10-9-6-8-3-7v-19l4-10 6-8 8-6 10-5z" fill="#0B0B0B"/>
<path transform="translate(1072,443)" d="m0 0h7l15 4 11 7 6 7 6 13 1 3v9l-4 12-7 11-9 7-14 6-5 1h-14l-9-2-9-5-9-8-5-8-2-8v-11l4-14 6-9 9-7 11-5z" fill="#0B0C0C"/>
<path transform="translate(167,843)" d="m0 0v3l-4 8-3 3-3 5-9 14-6 11-8 15-11 26-2 5 1 3h-3l-2 13v5l-3 3-1 14-1 11-5 15-1 15v23l2 21 1 8 2 12 3 14 9 29 5 10 4 10 6 14 6 11 7 12 6 9 7 14 6 7 3 6 3 3 6 10 9 10v2h2l7 9 3 3v2h2l3 3v2l4 2 4 5v2h2l4 5v2h2v2l3 1 5 5v2l4 2 6 7v2l3 1v2h2l7 8 8 8 5 3 7 8 5 4v2l5 2 9 9 9 7 10 9 6 4 8 7 11 9 17 12 19 14 17 12 33 24 15 10v2l4 2 7 6 5 5-2 2 4 4-5-2-10-8-12-8-11-8-16-11-18-13-16-11-13-10-9-6-12-10-12-9-16-13-14-11-12-11-16-14-10-9-7-6-7-8-27-27-7-8-14-17-13-16-16-22-11-18-10-17-12-24-10-23-6-17-6-23-2-10-3-14-2-22-1-3v-33l2-3 1-25 5-19 3-15 5-17 6-15 12-25 12-21 6-8 10-14 4-1z" fill="#5E6A9D"/>
<path transform="translate(1202,1476)" d="m0 0 22 5 43 9 53 9 16 4 1 3-18 4-48 12-48 10-24 4h-5l-2-9-5-27-1-9 7-8 7-6z" fill="#2D2D30"/>
<path transform="translate(509,1495)" d="m0 0h8l1 2-2 11 1 4-2 3-4 42h-8l-44-7-42-9-32-9-13-5 1-3 54-9 49-11 26-7z" fill="#2C2C2F"/>
<path transform="translate(1398,823)" d="m0 0 2 4 3 14 2 3 4 24v31l-1 9-1 6-2 16-4 16-4 13-2 12-7 21-2 3-3 9-5 12-6 12-4 9-5 10-1 3h-2l-2 5-6 10-7 14h-2l-1 6-7 12-7 10-7 11-5 4-10 14-8 11-3 5-6 7-4 7-14 16-7 9-4 6h-2v3h-2l-2 4-9 12-7 9h-2v2h-2l-2 4-4 5h-2v2h-2l-2 4-6 7h-2v2l-5 5-7 9-6 5-7 8-7 7-4 5-7 8-9 11h-2l-5 10h-2l-2 4h-2l-2 4-9 9-8 7-12 13-8 10h-2l-2 4-12 14-5 5-6 8-4 5-7 8-7 9-12 14-15 15-7 10-9 12-9 10-3 1v2h-2l-2 4-3 4-5 9-21 28-10 13-6 5-7 8-10 12-1-3 7-8 6-8 4-7 3-10 6-2 9-14 7-7 11-17 3-4 5-2 3-8 5-5 8-10 7-8 9-12 9-10 8-10 13-15 10-11 9-12 6-5 6-9 6-5 6-9 6-3 10-13 9-8 4-6 8-8 7-8 14-15 9-11 5-5 10-11 5-5 5-6 5-5 5-6 3-5 8-6 5-10 6-1 2-5 9-11 4-4 4-6 12-13 10-13 10-14 10-13 6-9h2l2-4 6-9 13-19 5-9 4-5 7-12 3-4 2-6 9-13 7-15 14-28 6-17 6-16 5-17 2-6 3-6 4-30 2-10 1-35 1-3-2-15-2-16-2-10z" fill="#EB855A"/>
<path transform="translate(1238,1579)" d="m0 0h13l10 5 4 5 2 6v6l-5 5-1 3 11 3 5 6 4 11-1 7-3 8-6 5-12 5-19 5-12 3-5 1-3-7-5-21-10-39-3-6 7-3 25-7z" fill="#0B0B0B"/>
<path transform="translate(534,243)" d="m0 0 7 1 1 1v9l-6 21-4 16-3 25-1 28 2 26 2 17 6 24 8 23 11 24 10 19 12 20 15 22 13 18 5 7v1l-6 1-1-4-6-9-3-1-6-12-5-4v-3h-2l-1-5-4-6-2-1v-2l-4-2v-4l-2-1-6-7-10-17-6-11-5-10-3-12-4-10-8-28-3-25-2-10-1-41 1-19 1-4 2-10v-6l-4-12-8-3-1 3-5 2-2 3-7 3-5 5-4 2-1 3h-2l-1 3-7 6h-2l-2 4-7 8-4 4-1 7-2 3h-2l-2 5-3 5-6 8-1 3h-2l-1 4h-2l-1 6h-2v5l-3 4-2 1-1 6-4 8-3 7-3 9-1 13-3 5-1 10v31l1 9 2 5v6l2 4 1 9 6 16 2 9 5 10 5 13 8 16 9 15 8 12v2h2l7 12 1 9-2 3-17-26-12-21-10-19-6-14-6-15-8-26-2-14-1-16-2-5 1-17 1-5 1-17 3-13 5-16 5-15 10-19 9-15 8-12 12-15 9-11 14-14 16-14 10-8 10-9z" fill="#636D9E"/>
<path transform="translate(673,1627)" d="m0 0h15l26 2 10 5 5 6 2 4v9l-4 6-4 3v2l6 4 6 9 1 7-4 10-6 7-6 3h-40l-10-1-1-5 1-7 1-19 1-40z" fill="#0B0C0C"/>
<path transform="translate(1197,417)" d="m0 0h4l4 12 10 49 2 7v6l-10 4h-6l-16-12-26-20-4-3h-2l5 21 5 20-8 4-7 2h-5l-3-9-4-18-9-44v-4l18-3 14 11 14 10 13 11 3 2v-8l-7-31 1-3 12-3z" fill="#0B0B0C"/>
<path transform="translate(470,687)" d="m0 0 9 1 8 4 5 6 4 9-1 5-3 7-4 3 1 4 7 6 12 16 4 8-8 2-6 1h-8l-4-4-10-15-4-3-10-2 2 15 3 11-1 4-14 4-5-1-4-16-9-42-2-11v-5l1-1 19-3z" fill="#0B0B0B"/>
<path transform="translate(622,644)" d="m0 0 4 1 7 9 12 17 11 15 11 16 7 10-3 2-19 2-7-9-3-2-9 1-9 3-12 1v15l-2 1-13 1-1 4h-5l-1-2 1-14 2-9 7-40 2-14 3-3z" fill="#0B0B0C"/>
<path transform="translate(878,528)" d="m0 0 5 1 12 18 13 18 12 16 7 9 2 1-1 3-7 3-12 3-5-5-4-7-2-2-8 3-22 3-1 13-10 5-7 2-5-1 1-11 7-38 5-27 3-4z" fill="#0C0C0C"/>
<path transform="translate(663,1040)" d="m0 0 1 2 7 2 1 2-4 10-7 14-7 19-2 7-3 25-6 11-5 6-8 7-8 13-7 14-2 6h-2l-1 6-4 10-2 6h-7l-3-5v-2h-2v-2h-2l1-6 5-10 7-24 1-1v-7l2-3h2l2-6 10-24 4-8 4-10 10-16 5-5 2-6h-2l-1 3-1-3 10-13 7-8 2-3z" fill="#090908"/>
<path transform="translate(1183,1593)" d="m0 0h7l8 47 1 5-4 12-4 6-7 6-14 6-6 1h-17l-8-2-9-6-5-7-4-14-6-29v-12l15-4 4 1 6 29 3 16 4 6 6 4h9l10-5 4-6v-10l-4-23-3-17 1-2z" fill="#0B0B0C"/>
<path transform="translate(498,1610)" d="m0 0 20 1v11l-4 30v11l4 6 4 3 3 1h12l7-4 3-7 7-44 5-1 13 2 1 1v12l-2 18-4 21-6 11-8 6-8 3-4 1h-14l-13-3-10-6-8-9-3-7v-22l3-19z" fill="#0B0B0C"/>
<path transform="translate(914,983)" d="m0 0 7 1 22 12 16 10 15 10 9 7 5 5 16 14 12 14 9 11 10 14 12 22 8 15 9 25 7 24 5 28 1 15v27l-3 29-6 28-4 15-3 7-3 10-7 16-6 10-3 6-8 15-10 13-14 18-24 24-5 4-2-1 9-11 8-7 8-9-1-28-1-8-22 5-29 4h-9l-1 4-3 1-14 1-13-1-17-5h-2l-2 3 1-6 8 1 13 2h12l3 2h11l-5-1v-2l18-4 12-2 16-2 19-4h6l1 2 3 26 4-1 3-1 2-4 7-10 6-8h2l1-7 4-6 3-5 4-6 10-21 6-16 5-23 4-18 2-16-11 4-4 2-7 1-15-35-11-22-8-12-11-17-8-9h3l8 8 20 30 8 15 10 25 5 12 3 1 15-9 2-1 2-6v-30l-3-23-6-27-3-10-1-3-1-11-6-15v-3l-5-1-5-8-10-18-7-10-7-7-3-6-11-13-21-21-11-9-18-13-16-9-17-9 2 4-2 2-6-8 2-4z" fill="#5C5D72"/>
<path transform="translate(559,666)" d="m0 0h5l3 9v6l-1 1-17 3-16 4 3 11 1 1 25-6 5-1 6 12-1 3-14 4-15 3h-5l3 11v5l25-5 12-1 1 1v14l-1 1-21 3-28 6h-4l-6-26-8-39-2-8 8-3z" fill="#0C0C0D"/>
<path transform="translate(806,563)" d="m0 0 6 1 10 5 6 8 2 5v11l-5 9-3 3-18 7-8 1 5 19v9l-5 3-5 1h-10l-10-51-3-17-2-4 9-3z" fill="#0B0B0B"/>
<path transform="translate(1e3 1619)" d="m0 0 16 2 7 3 2 7v10l-7-1-9-2h-12l-9 2-8 6-5 10v7l3 8 8 7 7 2h10l13-4 10-5h4l1 4v11l-4 5-12 5-8 2-18 1-13-4-10-6-7-8-5-10-1-4v-14l4-10 6-8 8-7 12-6z" fill="#0C0C0C"/>
<path transform="translate(1165)" d="m0 0h3l1 8v36l-2 20-3 16-9 30-6 16-4 13-5 7h-3l-2 6-6 11-12 19-12 22-8 11-4 4-7 11-11 13-12 13-7 8-10 11-1 2h-2l-2 4-14 15h-2v2l-5 5-3 5h-2l-2 6-3 2h-3l-1 3-5 2v2l-3 3h-2l-1 4-5 5-5 6-7 6-6 8-10 10-7 8-8 8-6 5-7 8-7 9-12 12-5 6h-2l-2 4-5 8h-2v2l-8 7-8 10-10 10-1-3 9-10 6-10 14-16 12-14 5-5 12-13 13-15 13-14 5-4 3-6 8-6 4-6 9-8h2l2-4 4-6 11-10 4-6 5-1 5-9 14-13 4-6 11-11 11-14 10-11 10-13 8-10 4-4 5-10 5-6 7-10 8-13 5-8 10-19 4-6 3-10 3-3 8-21 8-23 2-12 3-11 2-17 1-1z" fill="#EB875C"/>
<path transform="translate(953,488)" d="m0 0h2v2h8l9 2 1 14-4 1-11-2h-8l-10 5 2 5 5 2 18 2 8 4 8 7 3 5 1 8-3 10-7 8-8 4-9 3h-18l-6-2-5-7v-9h7l9 2h10l8-4 2-3-3-3-13-4-15-3-9-6-5-10v-9l4-8 8-7 10-4 10-2z" fill="#0D0D0D"/>
<path transform="translate(261,1039)" d="m0 0h3l5 25 6 22 10 24 11 20 10 15 10 14 11 14 9 10 7 8 9 10 75 75 8 7 11 11 8 7 14 14 11 9 3 3v2l4 2 13 12 12 11 9 9 8 7 8 8 8 7 10 9 14 14 11 9 16 16 6 7 8 7 24 24 7 9 14 14-1 2-9-9h-3l-9-10-8-7-11-11-8-7-9-9-4-5-8-7-28-28-5-8-4-2-7-6v-2l-4-2-8-8-1-4-5-1-14-13h-3l-14-14-2-4-8-7-4-2-5-5-7-8-10-10-7-6-2 1-4-4-2-4-13-13-16-12-21-21-7-6-7-8-36-36-1-4-4-2v-3l-9-11-11-14-6-7v-2l-4-2-7-8-9-15-6-11-7-14-4-14-4-11-4-13-3-12z" fill="#6C759F"/>
<path transform="translate(432,1595)" d="m0 0 16 4 36 7-2 5-2 10-9-1-23-5-1 15 24 4 5 1v8l-2 7-16-2-13-3-2-1-2 12-5 18-5 1-6-3-10-2 3-10 6-28 5-26z" fill="#0C0C0D"/>
<path transform="translate(587,1621)" d="m0 0h12l31 2 27 3 4 2-1 14-20-1-8-1v9l-3 29-2 23h-7l-14-3 2-25 3-31 1-4-27-2v-9z" fill="#0C0C0D"/>
<path transform="translate(816,966)" d="m0 0h27l23 4 17 3 20 6 5 2 6 1-4 1v2l3 1-4 1-15-5-29-6-22-3h-30l-18 2-29 6-17 5-8 4h-4l2 7 21 8 6 3-3 1-17-5-1-2h-7l-3-8-29 15-18 12-13 11-4 4h-2l-2 4 1 1h8v4l-12 27-8 21-5 20v5l13 10 15 11 13 9 12 12 4-4 2 1-5 5-1 8h-1l-2-6-7-7-38-28-9-6 1-2 3-25 7-21 4-9 5-10 4-10-2-2-6-3-7 4-8 7h-2l-1 4-5 5-7 6 2-4 8-10 4-6 5-5 11-10 7-6h2v-2l9-7 12-9 35-21 6-2 8-3 9-2 11-4 12-3 7-2 22-3z" fill="#595A6F"/>
<path transform="translate(852,1630)" d="m0 0h19l1 1 2 36v24l31-2h7l1 14-7 2-8 1-27 1-17 1-1-13-1-33z" fill="#0B0B0C"/>
<path transform="translate(684,615)" d="m0 0h3l2 9 10 48 1 1 33-7 4 1v15l-39 8-12 3-4-1-4-15-10-48-1-12z" fill="#0C0C0D"/>
<path transform="translate(1060,1614)" d="m0 0h4l5 29 3 27v4l31-4h6l3 5 1 8-7 3-42 6h-10l-7-56-3-16 1-2z" fill="#0C0C0C"/>
<path transform="translate(591,1192)" d="m0 0 3 1 3 6 5 2 1 50 4 33 7 34v8l-4 8-3-1-7-17-6-21-5-23-3-24v-36l2-14z" fill="#FAF9F7"/>
<path transform="translate(734,1451)" d="m0 0 10 1 29 6 29 4h33l10-2 5 1 12 12 3 2v2l-17 3-22 1-21-2-38-7-18-5-18-8-2-4z" fill="#DCD0BE"/>
<path transform="translate(1027,601)" d="m0 0 2 1-15 13-2 2-2 5-9 8-7 8-3 5-16 28-8 11-3 1-2 2-3 4-8 20-5 15-3 7-2 17-2 1-1 3h2l-2 7-1 1v41l2 6h4v-2h2l1-2 5-5 4-1 2-1 2-4h2l1-5 5-2 9-13 13-15 5-5 8-9 2 1-4 6-15 15-11 14-3 6-8 8-5 10-4 5h-2l-2 4-6 5-4 2h-5l-5-7-2-7 1-7 1-34 2-11 1-11 5-17 3-9 2-5 2-8 3-5 3-9 9-13 11-18 5-6 7-9 16-17 5-4 4-8 8-4 7-6z" fill="#EC8357"/>
<path transform="translate(515,1511)" d="m0 0 9 6 16 13 10 8 11 9 12 11 6 5 15 2 16 1v1h-20l-25-3-54-6v-13l3-30z" fill="#FBFAF9"/>
<path transform="translate(786,1647)" d="m0 0h11l8 3 6 5 3 6v16l-4 7-7 5-7 2h-8l-10-3-5-5-3-5-1-6v-8l3-8 8-7z" fill="#FCEB5E"/>
<path transform="translate(1069,462)" d="m0 0h14l8 7 5 8 1 2v10l-7 11-6 4-4 1h-14l-8-4-4-5-4-10 1-8 3-6 5-6 6-3z" fill="#FCEB5E"/>
<path transform="translate(1006,465)" d="m0 0 3 2 8 40 5 27v6l-13 3h-6l-5-23-7-34-3-13 1-4z" fill="#0C0C0D"/>
<path transform="translate(704,1812)" d="m0 0h1v27l-3 19-4 16-6 21-1 5 1 5 6-1 8 2v-2h2l1-2 6-2 10-8 8-6h2l1-3h2v-2l5-4 1-2h2l2-5h2l2-5h2v-2l3-3h2l2-4 6-9 8-16 2-2h3l-1 5-8 15-12 17-9 11-17 17-12 9-11 8-11 7-16 9-10 4h-3l1-8 11-21 5-13 5-15 5-18 4-29 2-13z" fill="#5E6A9B"/>
<path transform="translate(1185,1492)" d="m0 0 2 3 5 26 2 15-1 1-24 3-22 4-6 2-8 1h-3l7-7 7-8 30-30 8-7z" fill="#FBFAF9"/>
<path transform="translate(564,796)" d="m0 0 4 1 11 14 7 11 9 15 12 28 3 10 2 6 2 12 2 5v8l-1 2-7-1-14-9-26-16-18-10-17-8-17-6-15-5-20-3v9h-1v-11h8l-1-4 12 2 15 4 20 7 16 7 19 10 11 7 4 2v2l5 2 6 4h4l1-2h3l1 3 2 1 1 3v-10l-2-12-1-4h2v-4h-2l-1-4-3-1-7-16v-7l-3 1-10-17-5-8-3-5-2-5-5-2-2-3z" fill="#646FA0"/>
<path transform="translate(1485,1183)" d="m0 0 1 3-3 5-7 8-18 24-8 11h-2l-2 4-4 1-1 6-5 5-7 6-4 9-7 2-6 10-5 5-4 5-4 2-1 4-8 7h-2l-2 4-5 6-5 1-2 6-4 5-8 7-6 4-4 7-7 5-7 8-1 1h-5l-2 5-9 11-9 6-2 5-13 10-4 6-5 1 2-7 3-1 2-5 6-7 2 1 5-4 3-6 4-4 4-2 3-4 5-3 9-12 7-7 2-3h3l2-4 8-7 7-8 4-2 12-10 2-3h2l2-4 8-7 5-9 8-6 3-5 7-5 4-5 1-4 8-9 4-1 2-6 5-5 8-9 4-6 2-1 1-3h2l1-4 17-17z" fill="#EC865A"/>
<path transform="translate(785,737)" d="m0 0 2 3 5 15v3h7l9 19 11 22 6 10 6 11 6 10 3 1 6 11 15 20 5 5v2l3 1v2h2v2l4 2 1 4 5-1 1-13-2-26v-25h1l1 23 4 34 4 3v13l-3 3-11-1-3-6v-2l-4-2-8-7-9-11-7-8-8-12-5-5-5-10-13-21-10-18v-2l-3-1-8-20-5-12-3-12z" fill="#EB8458"/>
<path transform="translate(349,1448)" d="m0 0h14l6 2v2l7 2 3 3 9 4 7 2 12 3 8 3 23 6 11 2 10 3 11 2-4-6 4 2 15 10-3 1-26-6-12-1-17-2-22-6-16-8-12-5-7-4-7-3-6-2-6 1-8 10-6 7-3 7v8l-1 3-1 11v12l3 13 1 4-9 4-19 6-21 5-7 1h-24l-23-5-19-6-1-2 9-1v3l24 4v2l15 2 23-1 13-2 7-2 12-3 1-2 6-2 8-1v-9l-3-18-1-22 5-13 4-7 7-6 5-2z" fill="#FDEE5F"/>
<path transform="translate(914,983)" d="m0 0 7 1 22 12 16 10 15 10 9 7 5 5 16 14 12 14 9 11 10 14 12 22 8 15 9 25 7 24 5 28 1 15v27l-2 21h-1v-54l-4-26-3-15-7-24-8-21v-3l-5-1-5-8-10-18-7-10-7-7-3-6-11-13-21-21-11-9-18-13-16-9-17-9 2 4-2 2-6-8 2-4z" fill="#6E6F82"/>
<path transform="translate(418,393)" d="m0 0 1 3-2 9-1 12 2 2v34l1 9 2 5v6l2 4 1 9 6 16 2 9 5 10 5 13 8 16 9 15 8 12v2h2l7 12 1 9-2 3-17-26-12-21-10-19-6-14-6-15-8-26-2-14-1-16-2-5 1-17 1-5 1-17 3-13z" fill="#646F9F"/>
<path transform="translate(919,990)" d="m0 0 6 2 24 13 12 8 12 9 14 12 22 22 9 12 1 6-7 1-2-5-16-11-16-13-5-5 5 2 5 4 9 3v-2l-13-11-20-15-16-10-15-7-10-4 1-6h3z" fill="#F7F4F1"/>
<path transform="translate(636,1138)" d="m0 0v3l-10 15-10 19-8 19-1 3v18l3 38 5 33 6 27v3l-5 2-1 4 3-2 5 1 9 4 8 3 3 1-3 5 1 2-4-2v-3l-14-6h-6l-2 5-5 7 1 6-2 2-3-3v-9l4 1 2-6 1-2v-8l-8-40-3-27v-50l-3-1 5-1 2-9 5-12h2l2-9 12-21z" fill="#474A65"/>
<path transform="translate(754,788)" d="m0 0h1l3 16 2 17-1 36-2 15-4 21-7 20-13 27-2 1-2-6 8-19 8-24 5-22 1-12v-6l-2-1 1-5v-35l1-16 1-6z" fill="#5D689C"/>
<path transform="translate(665,920)" d="m0 0h1l1 22-5 17-7 17-13 24-1 8 3-1 1-4v-3l4-3 4-1 2 4v3l5-1 10-7 11-7 13-11 11-9 11-11 6-7 1-4 5-5h3l-2 4-6 8-7 9-9 10-9 9-8 6-14 10-13 8-22 11h-6l-2-3v-7l4-6 3-9 13-26 3-8 3-9z" fill="#636D9A"/>
<path transform="translate(475,1322)" d="m0 0 4 2 3 3v2l4 2 13 12 12 11 9 9 8 7 8 8 8 7 10 9 14 14 11 9 16 16 6 7 8 7 24 24 7 9 14 14-1 2-9-9h-3l-9-10-8-7-11-11-8-7-9-9-4-5-8-7-28-28-5-8-4-2-7-6v-2l-4-2-8-8-1-4-5-1-14-13h-3l-14-14-2-4-13-15z" fill="#5E699A"/>
<path transform="translate(1549,657)" d="m0 0 3 3 10 19 9 21 5 15 5 12 4 15 3 15 4 15 3 18 4 38 1 6v60l-2 21-1 3-2 23-3 19-4 16-3 14-6 21-5 14-7 20-3 6-3 9-25 50-5 5 2-6 12-22 14-29 11-30 8-25 8-32 5-27 4-34 2-35v-27l-2-31-3-27-5-28-7-28-12-35-7-16-12-24z" fill="#F6F3F0"/>
<path transform="translate(831,1798)" d="m0 0 2 2 1 4-2 5v9l-2 4-1 10-1 16-1 7v15l-1 26v59l3 25v5l-2-3-4-17-1-13-1-3-2-21v-58l2-18 1-2 2-28 4-10z" fill="#EB7C4D"/>
<path transform="translate(1471,564)" d="m0 0 4 2 9 4 3 7 6 3 11 12v2l4 2 8 9 6 8 7 9 10 16 10 17 4 10 8 15 7 17 5 13 10 31 8 36 1 13h-1l-4-20-3-10-1-2-2-15-7-20-4-12-2-7-2-1-7-17-8-16-10-19-7-12-10-14-8-10-3-4-3-1-2-4-4-4-4-6-4-2 1-3h-2l-3-5-9-7-4-1-1-5-8-7z" fill="#EB895E"/>
<path transform="translate(587,1167)" d="m0 0 1 3-2 8v16h-2l1 7 1 1 2-3-1 13v36l4 29 7 30 6 17 3 9-1 9-3-4-8-22-4-15-1-14-3-1-3-12-2-21-3-8-1-10v-16l1-12 3-11 2-22z" fill="#6E6F82"/>
<path transform="translate(617,783)" d="m0 0 4 1 10 13 9 16 8 15 9 23 6 17 2 7 3 4v2l1 5 1 4h-2l1 2v19h-2l-1 6h-1l-2-16-3-14-1-12-4-9-2-9-5-12-7-15-8-16-11-19-6-10z" fill="#5D699C"/>
<path transform="translate(1009,1084)" d="m0 0h1v8l-2 20-4 17-2-4-3 7-10 19-6 8-8 5-9 3-17 1 2-2 4-2-3-2 10-4 13-9 5-4 11-14 8-14 7-21z" fill="#DCD0BE"/>
<path transform="translate(1173,664)" d="m0 0h37l16 2 22 5 23 7 18 8 22 12-4 1-22-12-11-5-7-3-22-5-19-5-2-1-36-1-24 1-29 5-21 6-20 7-16 7-4 4-10 3-11 8-9 5-13 10-11 9-5 4-2 4-9 3 4-5 11-9 14-11 8-6 22-14 17-9 20-8 27-9 27-6z" fill="#F3F0EA"/>
<path transform="translate(261,1039)" d="m0 0h3l5 25 6 22 10 24 11 20 10 15 10 14 8 10-1 2-5-3-9-11v-2l-4-2-7-8-9-15-6-11-7-14-4-14-4-11-4-13-3-12z" fill="#6B74A1"/>
<path transform="translate(942,613)" d="m0 0 1 2-2 5 10-4-1 4-9 3-6 5-5 9-7 12-5 8-5 13-3 5-5 15-1 7-4 3-2 5-2 13-3 7-3 17-2 3-1 5-2 34-1 2v46l2 26v14h-1l-4-34-1-34 1-25 4-33 8-33 5-15 8-20 9-20 9-17 12-19z" fill="#F5F2EE"/>
<path transform="translate(737,1446)" d="m0 0 36 6 34 4 12 1h14l11-2 4-1 1 4 2 4-6-1-10 2h-33l-35-5-33-7z" fill="#3A3B4A"/>
<path transform="translate(823,1564)" d="m0 0 5 1v3l27-1h50v1l-39 2-57 2h-113l-55-2-12-1v-1h19l53 2h13v-3l1 1h95l1-1 10-1z" fill="#F4F0EB"/>
<path transform="translate(664,1038)" d="m0 0 2 1 2 2h8v4l-12 27-8 21-5 20v5l13 10 15 11 13 9 12 12 4-4 2 1-5 5-1 8h-1l-2-6-7-7-38-28-9-6 1-2 3-25 7-21 4-9 5-10 4-10-2-2-8-4z" fill="#31323A"/>
<path transform="translate(901,998)" d="m0 0h11l-4 2-25 6-8 4h5l-3 3-15 6-12 6-9 4-5 3-7 1 5-6-3-1-1 4-3 2h-4l2-4 4-4 12-7 9-2h2l-2-2 12-4 2-2 15-4v-1l9-2 11-1z" fill="#1A1B20"/>
<path transform="translate(1179,353)" d="m0 0 1 2-3 6h-2v2l-4 4-2 6 5 1 1 2h22l18-1 4-2 2 1v2l47 1 39 2 2 1v2l21 2 24 5 1 3-13-2-35-6-21-2-27-2-26-1-12-1h-15l-48 2 6-8 8-10z" fill="#F4F1ED"/>
<path transform="translate(1398,823)" d="m0 0 2 4 3 14 2 3 4 24v31l-1 9-1 6-2 16-4 16-3 3h-1l1-16 2-14 2-10 1-35 1-3-2-15-2-16-2-10z" fill="#EC916A"/>
<path transform="translate(907,1858)" d="m0 0h1l-1 10-5 17-4 16-3 20-2 1-1 11-1 37-1 16-1 5 1 1 3 41 2 12h-3l-3-15-3-31v-30l2-28 3-21 7-32z" fill="#F4F1EB"/>
<path transform="translate(1267,65)" d="m0 0h1l5 24v53l-3 11-4 31-5 20-6 19-5 15-4 9-4 13-4 2-3 9-6 11-3 2 2-6 14-28 8-21 6-18 7-30 5-31 1-10v-62h-2z" fill="#F3F0EA"/>
<path transform="translate(998,1364)" d="m0 0h6l1 2 1 10v20l1 5-2 1-1-5-1-21-1-8-22 5-29 4h-9l-1 4-3 1-14 1-13-1-17-5h-2l-2 3 1-6 8 1 13 2h12l3 2h11l-5-1v-2l18-4 12-2 16-2z" fill="#454861"/>
<path transform="translate(1286,1399)" d="m0 0 1 3-5 5-13 10-2 3h-2l-1 4-6 4-5 4-5 8-7 3-11 12-1 6 16-3 12-2 15-4 9-2 16-5 7-2 11-1-3 2-5 2-17 4-38 10-36 8-4-1 9-9 8-7 12-11 8-7 7-7 8-7 8-8 11-9z" fill="#F7F5F1"/>
<path transform="translate(564,796)" d="m0 0 4 1 11 14 7 11 9 15 12 28 3 10 2 6 2 12 2 5v8l-1 2-3-1-1-9h-2l-3-16-1-8-1-4h2v-4h-2l-1-4-3-1-7-16v-7l-3 1-10-17-5-8-3-5-2-5-5-2-2-3z" fill="#6C6C7E"/>
<path transform="translate(370,1707)" d="m0 0 8 1 43 10 39 7 60 9 27 3 50 4v1h-20l-37-2-11-1-15-3-15-2-17-3-26-3-1-1-32-5-10-3-21-5-18-2-1-3-3-1z" fill="#F4F1EC"/>
<path transform="translate(606,1342)" d="m0 0 1 2 5-1 13 24 5 7v2h2l8 12 4 5v5l9 10 11 11 4-1 15 13 1 4 8 6-2 1-11-8-9-7-10-9-16-16-10-14-12-15-6-10-6-12-4-6z" fill="#45454A"/>
<path transform="translate(1420,438)" d="m0 0h1v11l-4 13-4 12-1 6 11 1 27 11 12 5 21 9 16 6 24 12 11 3 5 5 3 4-5-2-31-15-72-30-27-9 1-5 10-28z" fill="#F4F1EC"/>
<path transform="translate(916 1e3)" d="m0 0 9 3 12 5 13 7 17 12 14 11 13 11-3 2-10-4-9-7-17-13-12-9-4-2v-2l-4-1-8-6-7-4-5-1z" fill="#484A65"/>
<path transform="translate(481,628)" d="m0 0h5l-4 2-30 7-27 5-19 2h-22l-19-3-23-4-13-1-2 12-5 16h-1l1-8 3-14 3-7 2-1h18l18 2 1 2 13 2h30l23-2 5-1v-2l23-2v-2z" fill="#ECE5DC"/>
<path transform="translate(810,1097)" d="m0 0h2v2l4-1 14 10 9 8 8 7 16 16 7 6 2 5-7-3-6-5-8-6-15-13-12-11-10-8-3-3z" fill="#DCD0BF"/>
<path transform="translate(1242,1704)" d="m0 0 1 2-9 3-3 3-35 3-10 1-7 2-29 4-17 3-18 2-1 1-36 3h-19v-1l38-4 48-6 57-9z" fill="#F5F3EE"/>
<path transform="translate(998,1408)" d="m0 0 2 1-7 8-3 3h-2l-2 4-9 11-17 12-9 6-30 15-24 9-11 3-9 1h-11v-1l20-3 21-6 21-9 6-5 9-3 2-4 11-7 12-9 11-9 10-9 8-7z" fill="#818082"/>
<path transform="translate(852,1280)" d="m0 0 4 5 7 11 8 15 8 17 2 10 3 8 1 7-3-4-8-16-14-26-8-16-2-6-2-2z" fill="#313238"/>
<path transform="translate(332,1466)" d="m0 0 1 3-3 9v14l2 19 3 13 1 4-9 4-19 6-21 5-7 1h-24l-23-5-19-6-1-2 9-1v3l24 4v2l15 2 23-1 13-2 7-2 12-3 1-2 6-2 8-1v-9l-3-18-1-22z" fill="#F3F0EA"/>
<path transform="translate(730,1282)" d="m0 0h2l-2 4-11 12-9 11-22 28-7 8v5l-4-2 1-6-1-3 5-5 9-11 6-7 4-7h2v-2h2l2-4 14-14z" fill="#474A65"/>
<path transform="translate(914,983)" d="m0 0 7 1 22 12 16 10 15 10 2 5 6 7 8 7 12 11-3 1-16-16-11-9-18-13-16-9-17-9 2 4-2 2-6-8 2-4z" fill="#626169"/>
<path transform="translate(816,966)" d="m0 0h27l23 4 17 3 20 6 5 2 6 1-4 1v2l3 1-4 1-15-5-29-6-13-2v-2h-8v-3l-4-1h-18l-18 2h-6v-1z" fill="#868587"/>
<path transform="translate(225,744)" d="m0 0 2 3 4 15h-54l-34-4-19-3-29-5-6-1v-4l4 1 6 2 16 1 6 2 7 2 22 2 6 1v2l67 1 2-1z" fill="#F4F1EC"/>
<path transform="translate(1047,1262)" d="m0 0h1v9l-4 17-11 32-5 8-4 7-3 4-2-1 4-12 7-16 9-29z" fill="#474A65"/>
<path transform="translate(1485,1183)" d="m0 0 1 3-3 5-7 8-18 24-8 11h-2l-2 4-4 1-1 6-5 5-7 6-4 3-3-1 2-4 7-8 4-1 2-6 5-5 8-9 4-6 2-1 1-3h2l1-4 17-17z" fill="#EC7C4D"/>
<path transform="translate(1398,1452)" d="m0 0h1l-1 11-4 10-7 20-3 4v10l4 4 10 3 2 3 13 3 7 6v2l-6-2-16-7-16-8-7-3-1-4 5-16 3-3 5-1v-7l3-3h2l1-5z" fill="#FDEE5F"/>
<path transform="translate(822,967)" d="m0 0h18l5 2 1 2 6 1v1h-39l-18 2-29 6-11 3-4-1 14-4 1-2 4-1 3-1 1-2 7-2z" fill="#3E3F44"/>
<path transform="translate(226,1553)" d="m0 0 18 18 14 11 12 9 11 6 15 8 21 9 20 8v3l-7 19-5 14-1-4 5-16v-12l-3-5-8-4-9-2-3-3-11-4-9-5v-2l-5-1-6-3-13-9-6-4-5-3-5-5-1-3-6-2-1-3-7-6-3-2-2-4z" fill="#F4F0EB"/>
<path transform="translate(960,1748)" d="m0 0h1v5l-12 19-11 19-6 13-9 20-6 14-5 16-4 3 3-11 10-24 5-11 1-7-7 7 1-5 8-16 3-4 6 1 12-22z" fill="#EB8052"/>
<path transform="translate(810,1092)" d="m0 0 11 7 14 11 13 11 8 7 7 7 8 7 9 11 6 9h-3l-5-1-11-10-8-7v-3l8 6 4 1-6-7-8-7-16-16-10-8-9-7-6-4h-4v-2h-2l-1-4z" fill="#454862"/>
<path transform="translate(1173,664)" d="m0 0h37l16 2 22 5 23 7 18 8 22 12-4 1-22-12-11-5-7-3-22-5-19-5-2-1-36-1-28 1 1-2z" fill="#F5F2ED"/>
<path transform="translate(592,1436)" d="m0 0 4 2 3 2 5 2 29 29 7 9 14 14-1 2-9-9h-3l-9-10-8-7-11-11-8-7-9-9-4-5z" fill="#777FA6"/>
<path transform="translate(1249,1623)" d="m0 0 5 1 4 4 1 6-4 4-13 5-4-2-4-10 1-4z" fill="#FCE75C"/>
<path transform="translate(697,1672)" d="m0 0 9 1 7 5 1 4-2 5-3 2h-17l-2-1v-9l2-6z" fill="#FCE85D"/>
<path transform="translate(727,941)" d="m0 0h4l-2 4-6 8-7 9-9 10-9 9-8 6-14 10-12 7-3-1 3-1 1-4 16-10 13-11 11-9 11-11 6-7 1-4z" fill="#686879"/>
<path transform="translate(1400,1404)" d="m0 0h2l3 11v17l-4 18-2 2 2-11 2-12v-11l-1-6-4 1-4 4-6 1-24 11-15 5-8 1-14 5-3-1 7-3 2-3 14-3 7-1 4-3 10-2v-2l10-4 4-3 10-3 6-4z" fill="#F7EC99"/>
<path transform="translate(349,1448)" d="m0 0h14l6 2v2l7 2 3 3 9 4 1 2-9-3-16-8-5-2-7 1-8 11-7 8-3 7v8l-1 3-2 16h-1l-1-12v-14l4-14 3-5 7-6 5-2z" fill="#FAEB6A"/>
<path transform="translate(283,942)" d="m0 0 1 2-9 19-5 14-5 26-1 2-1 31h-1l-1-22v-27l4-10v-6l1-2h2l1-5 3-8h2l2-5 2-4h2z" fill="#7F87AE"/>
<path transform="translate(1069,462)" d="m0 0h10l-4 6-15 14-7 8-3-4 1-8 3-6 5-6 6-3z" fill="#DD652F"/>
<path transform="translate(725 1e3)" d="m0 0h5l-5 4-14 9-11 9-14 10-8 3 2-4 15-15 11-8v-2-3l6-2-1 3-1 1 6-1 5-3z" fill="#DCD0BE"/>
<path transform="translate(697,1313)" d="m0 0 1 3-9 10-10 13h-2l2 2-1 6-1 1h-16l-5-2v-2l11-6h2v-2l8-4 12-11 5-4z" fill="#F1EEEA"/>
<path transform="translate(973,1041)" d="m0 0 5 2 5 4 9 3 6 1 8 8 2 1 2-2 7 8 2 5v3l-7 1-2-5-16-11-16-13z" fill="#DDD2C1"/>
<path transform="translate(552,1395)" d="m0 0 4 1 12 12 11 9 16 16 5 7h-3l-3-3-5-1-33-33-4-6z" fill="#6872A1"/>
<path transform="translate(652,996)" d="m0 0 3 3v4l5-1 4-2v2l-2 1 1 2-22 11h-6l-2-3v-7l4-6 3-1 1 1v8l3-1 1-4v-3l4-3z" fill="#566296"/>
<path transform="translate(703,1010)" d="m0 0 4 1 1 2-14 10-15 15-1 5-5-1-7-1 3-5h2l2-4 11-9 14-10z" fill="#F9F8F5"/>
<path transform="translate(458,877)" d="m0 0h10v1l-17 3-1 1-40 2h-34l-26-1-3-4 44 2 36-1z" fill="#F8F5F2"/>
<path transform="translate(131,788)" d="m0 0 5 4 12 6 7 4 10 6 9 6 4 5 4 2v2l2 1-5 4v-3l-10-6-6-5-5-3v-2l-10-3-8-8-6-3-3-3z" fill="#FAE264"/>
<path transform="translate(1056,577)" d="m0 0 3 1-16 13-10 8-4 2 6-7 2-6-19 3-5 3-4 1-1 2-15 3-4-1 37-13 12-4 5-3 11-1z" fill="#F5F1ED"/>
<path transform="translate(272,796)" d="m0 0 9 2 16 5 25 6 7 2v1l-10-1-7-1-2 3-1-4-14-4v2l5 1 4 2-1 4-3 2-5-1-19-13-4-3z" fill="#313137"/>
<path transform="translate(875,550)" d="m0 0 3 3 10 16 2 4-17 4h-4l2-12z" fill="#DD652F"/>
<path transform="translate(1059,1136)" d="m0 0 2 3 7 24 4 20 3 21v38l-1 3-10 4-6 4-2-1 8-6 6-3 2-6v-30l-3-23-6-27-3-10-1-3z" fill="#373945"/>
<path transform="translate(618,667)" d="m0 0 5 5 7 11 3 4 1 4-8 2-12 1 2-9z" fill="#FAE761"/>
<path transform="translate(1179,353)" d="m0 0 1 2-3 6h-2v2l-4 4-2 6 5 1 1 2h22l18-1 4-2 2 1v2l33 1v2h-21l-12-1h-15l-48 2 6-8 8-10z" fill="#F2EFE9"/>
<path transform="translate(996,1161)" d="m0 0 4 2 7 7 20 30 8 15 10 25 5 12 6 2-7 3-15-35-11-22-8-12-11-17-8-9z" fill="#3B3D4E"/>
<path transform="translate(795,581)" d="m0 0h11l3 6v6l-10 5-5 1-3-7-1-9z" fill="#DE6731"/>
<path transform="translate(1048,1107)" d="m0 0 3 3 8 18 7 22 5 17 5 28 1 15v27l-2 21h-1v-54l-4-26-3-15-7-24-9-24-3-6z" fill="#F2EEE8"/>
<path transform="translate(459,704)" d="m0 0h10l5 3 1 5-1 3-8 5h-7l-3-4-2-11z" fill="#FCE85D"/>
<path transform="translate(389,1463)" d="m0 0 10 1 13 4 22 6 15 3 10 3 11 2-4-6 4 2 15 10-3 1-30-7-41-11-22-7z" fill="#F5F2ED"/>
<path transform="translate(664,1038)" d="m0 0 2 1 2 2h8v4l-12 27-8 21-6 24h-1l1-13 2-11 6-18 4-9 5-10 4-10-2-2-8-4z" fill="#34353F"/>
<path transform="translate(1441,1575)" d="m0 0v3l-11 5-12 5-16 5-17 6-8 3-5 3 1 13 2 9-1 4-8-27v-2l41-14 22-8z" fill="#F5F2ED"/>
<path transform="translate(822,1850)" d="m0 0h1l-1 18v62l4 34 3 16v5l-2-3-4-17-1-13-1-3-2-21v-58l2-18z" fill="#DFD4C4"/>
<path transform="translate(950,1163)" d="m0 0h6l-2 3-18 6-33 7h-7l1-3 23-6 26-6z" fill="#353641"/>
<path transform="translate(794,1745)" d="m0 0h51l-1 7-10 36-3 14h-1v-10l5-19 3-9 2-11v-5h-44l-1 26-2 3v-18z" fill="#F1EDE7"/>
<path transform="translate(778,699)" d="m0 0 2 1 4 27 1 9-2-2-3-8-2-18-15 2-5 3-12 4-11 4-1 4-2-5 11-5 21-8 2-4 8-3z" fill="#F5F2EE"/>
<path transform="translate(942,613)" d="m0 0 1 2-2 5 10-4-1 4-9 3-6 5-5 9-7 12-5 8-5 13-3 5-5 15-1 7-4 3h-2l3-9 8-20 12-25 13-21z" fill="#F5F2EE"/>
<path transform="translate(1021,1068)" d="m0 0 3 1 4 7 6 3 13 24 4 10v2l-5-2-13-23-7-11-2-4-3-5z" fill="#515154"/>
<path transform="translate(205,635)" d="m0 0h12l3 8 8 3 5 7h-3l-5-3-8-6h-4v3l-5 1-1 8-3-2v-18z" fill="#F9EA74"/>
<path transform="translate(693,1643)" d="m0 0 13 1 3 2v9l-5 3h-9l-3-2v-12z" fill="#FCE75A"/>
<path transform="translate(1264,184)" d="m0 0 1 4-6 23-9 27-4 9-4 13-4 2-3 9-6 11-3 2 2-6 14-28 8-21 6-18 6-26z" fill="#F2EEE8"/>
<path transform="translate(1044,1732)" d="m0 0h5v2l-2 1-25 3-2 1-42 2-9 2-3 3-4 1 2-5 6-8 1 4-1 2 11-2 37-3z" fill="#F6F3EF"/>
<path transform="translate(1232,1597)" d="m0 0h12l2 7-2 5-9 3-5-1-3-10v-3z" fill="#FBE65A"/>
<path transform="translate(613,1743)" d="m0 0 88 2 1 11 1 7v9l-2-3-3-21-49-1-25-1-11-1z" fill="#F2EEE8"/>
<path transform="translate(1165)" d="m0 0h2v43l-5 26-5 20-6 18-7 17-1-3 9-24 4-12 2-12 3-11 2-17 1-1z" fill="#ECE6DD"/>
<path transform="translate(564,796)" d="m0 0 4 1 11 14 7 11 9 15v2h-5l-10-17-5-8-3-5-2-5-5-2-2-3z" fill="#6C759F"/>
<path transform="translate(918,995)" d="m0 0 1 4-5 4-31 8h-8l-2-2 14-5 21-5v-2l9-1z" fill="#2D2D32"/>
<path transform="translate(943,1451)" d="m0 0m-3 1h3v2l-11 5-4 4-21 9-17 5-7-1 4-2 27-10 16-7z" fill="#303035"/>
<path transform="translate(760,1454)" d="m0 0 18 1 27 3 12 1h22l-1 2-5 1h-29l-24-3-13-1-4-1v-2z" fill="#0A0B0B"/>
<path transform="translate(737,1446)" d="m0 0 36 6 9 1 12 3v1h-9l-17-2h-5v1l-10-1-19-4z" fill="#32333B"/>
<path transform="translate(1342,1682)" d="m0 0 3 1-3 2-15 4-9 3-12 2-7 2-19 3-2 2-22 3h-9v-1l56-11 35-9z" fill="#F4F0EB"/>
<path transform="translate(621,1086)" d="m0 0v3l-12 22-5 11-3 7-3 3-6 18-2 10h-1l1-13 8-21 9-20 11-19z" fill="#B1B0B5"/>
<path transform="translate(702,1314)" d="m0 0h2l-1 4-13 16-6 8-3 3v5l-4-2 1-6-1-3 5-5 9-11 5-1 2-4z" fill="#303137"/>
<path transform="translate(886,1969)" d="m0 0h1v22l3 1 3 41 2 12h-3l-3-15-3-31z" fill="#F3F0EB"/>
<path transform="translate(953 1e3)" d="m0 0 9 5 12 8 2 5 6 7 8 7 12 11-3 1-16-16-11-9-18-13z" fill="#6D6E80"/>
<path transform="translate(638,1074)" d="m0 0v3l-12 21-4 10-7 16-4 10-3 6-5 5 1-5 8-19 14-29 11-17z" fill="#9C9693"/>
<path transform="translate(1574,1018)" d="m0 0 1 3-5 16-6 14-3 9-25 50-5 5 2-6 12-22 14-29 11-30z" fill="#F3EFEA"/>
<path transform="translate(89,745)" d="m0 0 4 1 6 2 16 1 6 2 7 2 22 2 6 1v2h8l1 2-15-1-26-4-29-5-6-1z" fill="#F2EEE8"/>
<path transform="translate(1549,657)" d="m0 0 3 3 10 19 9 21 5 15 5 12 4 15 3 15v5l-2-4-6-24-12-35-7-16-12-24z" fill="#E6DED2"/>
<path transform="translate(1541,540)" d="m0 0 2 1-6 4-15 2-8 3-18 4-15 5-10 5-4-4 16-5 25-7z" fill="#F5F2ED"/>
<path transform="translate(1354,737)" d="m0 0 5 4 10 14 9 15 8 16 9 23 2 9-3-4-7-18-3-9-9-17-7-11-9-14-5-5z" fill="#F6F3EF"/>
<path transform="translate(1501,517)" d="m0 0 9 3 27 13 8 4-1 3-8 2-4-1-2-5-2-4-2-1v-2l-5-1-7-3-7-2-5-3z" fill="#FBEC63"/>
<path transform="translate(867,1305)" d="m0 0 3 4 9 19 2 10 3 8 1 7-3-4-8-16-4-9 2-2-4-8-2-8z" fill="#464964"/>
<path transform="translate(1395,952)" d="m0 0 1 3-12 36-8 21-21 42-1-3 20-40 6-17 6-16 5-17 2-6z" fill="#EFEAE2"/>
<path transform="translate(585,507)" d="m0 0 4 5 13 18 8 11 2 4-6 1-1-4-6-9-3-1-6-12-5-4v-3h-2v-4h2z" fill="#6E759C"/>
<path transform="translate(1420,1528)" d="m0 0 15 2 7 3 16 4 7 3 15 2 5 3 1 2-16-3-26-7-18-6-6-1z" fill="#F6F3EF"/>
<path transform="translate(642,1397)" d="m0 0 22 22 4-1 15 13 1 4 8 6-2 1-11-8-9-7-10-9-16-16z" fill="#9D9B9A"/>
<path transform="translate(890,1938)" d="m0 0h1v32l-1 16-2 5h-1v-41l1-9z" fill="#FBFAF8"/>
<path transform="translate(618,1320)" d="m0 0 5 1 9 4 8 3 3 1-3 5 1 2-4-2v-3l-14-6h-6l-2 5-5 7 1 6-2 2-3-3v-9l4 1 2-6 3-5h2z" fill="#35353F"/>
<path transform="translate(1220,1235)" d="m0 0h2l-1 3h-2l-2 4-11 12-7 8-9 10-7 7-7 8-14 15-3 2 2-4 11-12 4-5 5-5 10-11 5-5 5-6 5-5 5-6 3-5z" fill="#EAE4DA"/>
<path transform="translate(911,1830)" d="m0 0h2l1 7-2 9-5 15-5-1 2-13 5-13z" fill="#EA7A4A"/>
<path transform="translate(330,634)" d="m0 0h18l18 2 3 4-21-2-19-2-2 12-5 16h-1l1-8 3-14 3-7z" fill="#F8F6F2"/>
<path transform="translate(815,1049)" d="m0 0 1 4-4 31-2 3-3-1-4 1 5-15 6-21z" fill="#474A65"/>
<path transform="translate(891,1374)" d="m0 0 8 1 13 2h12l3 2 9 1 2 2-14 1-13-1-17-5h-2l-2 3z" fill="#3F4155"/>
<path transform="translate(1382,1497)" d="m0 0h1l1 10 4 4 10 3 2 3 13 3 7 6v2l-6-2-16-7-20-10 1-4z" fill="#F6F3EF"/>
<path transform="translate(1361,393)" d="m0 0h12l12 3 1 1 24 4 12 5 2 3-9-2-18-5-36-8z" fill="#F3F0EA"/>
<path transform="translate(1377,1420)" d="m0 0m-3 1h3v2l-13 6-15 5-8 1-14 5-3-1 7-3 2-3 14-3 7-1 4-3 14-4z" fill="#F6E278"/>
<path transform="translate(886,1388)" d="m0 0 1 3-12 26-9 15-8 12-7 9h-3l5-6 12-20 8-13 11-21z" fill="#404358"/>
<path transform="translate(636,1138)" d="m0 0v3l-10 15-10 19-8 19-2 5-1-4 3-9 3-8h2l2-9 12-21z" fill="#34343D"/>
<path transform="translate(167,843)" d="m0 0v3l-4 8-3 3-3 5-4 6-6 3h-2l2-5 10-14 6-8h3z" fill="#737CA8"/>
<path transform="translate(1530,1115)" d="m0 0 1 2-12 22-9 15-11 14-7 11-3 1 2-5 14-19 13-21z" fill="#F5F2EE"/>
<path transform="translate(883,975)" d="m0 0 15 2 10 4 6 1-4 1v2l3 1-4 1-15-5-13-3-1-3z" fill="#616063"/>
<path transform="translate(997,1366)" d="m0 0h8l1 10v20l1 5-2 1-1-5-1-21-1-8-22 5-20 3h-9v-1l37-6z" fill="#323239"/>
<path transform="translate(859,1141)" d="m0 0 8 6 5 2 3-2 9 11 2 4h-3l-5-1-11-10-8-7z" fill="#44475F"/>
<path transform="translate(937,730)" d="m0 0 1 4-4 21-2 28v31l-2-2-2-7 1-7 1-34 2-11 1-11z" fill="#F2EEE7"/>
<path transform="translate(1572,714)" d="m0 0h2l9 27 8 36 1 13h-1l-4-20-3-10-1-2-2-15-7-20z" fill="#EC7C4D"/>
<path transform="translate(1310,1442)" d="m0 0h5l-3 2-5 2-17 4-38 10-3-1 3-2 20-5 9-2 16-5 7-2z" fill="#EFEAE2"/>
<path transform="translate(1518,1133)" d="m0 0 1 2-13 21-12 16v-3l2-5 5-10v-2h3l2-6 10-10z" fill="#EC7C4D"/>
<path transform="translate(785,737)" d="m0 0 2 3 6 18 10 23 14 26-1 2-12-21v-2l-3-1-8-20-5-12-3-12z" fill="#F2EDE7"/>
<path transform="translate(1225,284)" d="m0 0 1 2-8 16-10 15-7 11-9 12-6 9-3-1 15-20 15-23 10-18z" fill="#F3F0EA"/>
<path transform="translate(601,1145)" d="m0 0h4v5l-10 30-3 1 4-20h2l1-10z" fill="#404257"/>
<path transform="translate(458,877)" d="m0 0h10v1l-17 3-1 1-15 1h-18l-17-1v-1l27-1z" fill="#F5F2EE"/>
<path transform="translate(1e3 743)" d="m0 0 2 1-4 6-15 15-11 14-3 6-5 5-3 2 2-5 6-8 10-13 9-10 5-5z" fill="#F6F4F0"/>
<path transform="translate(226,1553)" d="m0 0 18 18 14 11 12 9 6 3-4 1-10-7-6-4-5-3-5-5-1-3-6-2-1-3-7-6-3-2-2-4z" fill="#F4F1EC"/>
<path transform="translate(724,1269)" d="m0 0 5 2 4 9-5 5-5 4h-2l2-17z" fill="#F8F6F3"/>
<path transform="translate(1017,1098)" d="m0 0h1v9l-3 19-5 16-4 8-1-2 6-22z" fill="#DCD0BE"/>
<path transform="translate(1013,1074)" d="m0 0h6l-1 4h-3l-1 10-2 12-1 8h-2l-1 4v-14l3-18z" fill="#3D3F52"/>
<path transform="translate(207,659)" d="m0 0h1l6 40 3 16-4-3-3-11-3-32z" fill="#F3F0EB"/>
<path transform="translate(1485,1183)" d="m0 0 1 3-3 5-7 8-18 24-8 11h-2l-2 4-4 1 6-7 7-9 20-26z" fill="#F1ECE5"/>
<path transform="translate(1404,872)" d="m0 0h1v29l-3 25-3 17h-1v-10l2-14 2-10 1-35z" fill="#F1EDE6"/>
<path transform="translate(520,1364)" d="m0 0 4 2 12 12 8 7 10 9-3 1-4-2-7-6v-2l-4-2-8-8-1-4h-2z" fill="#8A8FAD"/>
<path transform="translate(664,1038)" d="m0 0 2 1 2 2h8v4l-12 27-6 15-1-4 5-13 6-12 3-13-10-5z" fill="#414359"/>
<path transform="translate(1e3 743)" d="m0 0 2 1-9 10h-2l-2 4-9 10-8 11-5 7-1-3 3-5 1-3 6-5 2-5 5-5 5-6 6-5 5-5z" fill="#EC7C4D"/>
<path transform="translate(1242,1704)" d="m0 0 1 2-9 3-3 3-25 1 2-3z" fill="#F7F5F2"/>
<path transform="translate(582,1203)" d="m0 0h1l1 10-1 35-2-1-1-6v-29z" fill="#313238"/>
<path transform="translate(728,1463)" d="m0 0 5 1 11 3 18 6v2l12 3 11 1v1h-13l-11-3-14-5-10-4-9-4z" fill="#A8A6AC"/>
<path transform="translate(1248)" d="m0 0h3l5 16 6 18 2 9 2 4 1 6v12h-1l-4-21-8-26z" fill="#EEE9E1"/>
<path transform="translate(901,998)" d="m0 0h11l-4 2-25 6-14 5-2-1-1-2 12-3h3v-2l-2-1 9-2 11-1z" fill="#47495F"/>
<path transform="translate(317,672)" d="m0 0 1 3-10 25-10-3-16-8v-1l9 1 10 6 6 1 2-6z" fill="#F2EDE7"/>
<path transform="translate(932,1799)" d="m0 0 1 3-11 24-6 15-4 13-4 3 3-11 10-24z" fill="#F4F1EC"/>
<path transform="translate(1030,718)" d="m0 0 3 1-16 13-7 6h-2l-1-4 8-8 9-5z" fill="#EC7C4D"/>
<path transform="translate(220,1530)" d="m0 0h2v3l24 4v2l7 2v2l-11-2-15-4-13-4-1-2z" fill="#F5F2ED"/>
<path transform="translate(897,700)" d="m0 0h2l-2 14-4 11-3 17-4 2 4-20z" fill="#F5F2ED"/>
<path transform="translate(360,639)" d="m0 0h10l10 1 28 1-2 1v2h-22l-19-3-5-1z" fill="#F3EFE9"/>
<path transform="translate(643,1395)" d="m0 0 4 2 20 20v2l-3 1-19-19-2-3z" fill="#2E2E33"/>
<path transform="translate(1031,1209)" d="m0 0 3 4 6 15 10 24 6 2-7 3-15-35-3-10z" fill="#3C3E4E"/>
<path transform="translate(90,748)" d="m0 0 18 3-3 3-3 1-2 3 1 4 2 3-5-2-8-12z" fill="#FAED79"/>
<path transform="translate(790,496)" d="m0 0 2 1-19 10-28 14-2-1 2-5 11-2 4-4 10-2 1-3 10-4z" fill="#EBE4DA"/>
<path transform="translate(332,1466)" d="m0 0 1 3-3 9v14l2 19 3 13 1 4-5 2v-11l-3-18-1-22z" fill="#EFE9E2"/>
<path transform="translate(1441,489)" d="m0 0 17 6 15 7 10 4v3l-20-8-24-10z" fill="#F4F0EB"/>
<path transform="translate(915,1171)" d="m0 0h8v4l-20 4h-7l1-3z" fill="#2D2E37"/>
<path transform="translate(955,1545)" d="m0 0h2l-2 4-9 12-3 3-26 3 2-1v-3l22-2 7-6z" fill="#F7F4F1"/>
<path transform="translate(593,839)" d="m0 0 3 1 5 11 6 14-1 3v-2h-2l-1-4-3-1-7-16z" fill="#65667C"/>
<path transform="translate(855,1567)" d="m0 0h50v1l-39 2h-15v-2z" fill="#F1ECE5"/>
<path transform="translate(956,362)" d="m0 0 2 1-7 8-12 13-9 10-11 12v-3l11-12 13-15z" fill="#F1ECE6"/>
<path transform="translate(322,1660)" d="m0 0 1 2-6 16-3 7v4l9 4 11 3v1l-14-1-5-4-4-2 1-6 5-14 1-9z" fill="#EDE7DE"/>
<path transform="translate(735,993)" d="m0 0h1l2 8h7l1 3 4 1-15-1-1-4-9 1-10 5-3-1z" fill="#DDD1C0"/>
<path transform="translate(829,1986)" d="m0 0h1l5 20 10 29 3 10h-2l-4-10-12-36z" fill="#F3EFEA"/>
<path transform="translate(1294,1694)" d="m0 0 4 1-6 2-12 2-2 2-22 3h-9v-1z" fill="#F2EDE7"/>
<path transform="translate(606,1342)" d="m0 0 1 2 5 2 4 8 1 4 3 7 7 11 6 7-1 2-8-9-8-13-6-12-4-6z" fill="#BCBABA"/>
<path transform="translate(621,1086)" d="m0 0v3l-12 22-6 6 1-5 13-24z" fill="#8B8B98"/>
<path transform="translate(838,2015)" d="m0 0 3 3 7 15 4 9v3h-4l-9-24z" fill="#EC7C4D"/>
<path transform="translate(1308,1126)" d="m0 0v3l-14 19-14 18-6 8v-3l10-14 10-13 6-9h2l2-4z" fill="#EFEAE3"/>
<path transform="translate(1588,760)" d="m0 0 2 3 4 19 2 19v16h-1l-3-27-4-23z" fill="#F1EDE6"/>
<path transform="translate(1286,1399)" d="m0 0 1 3-5 5-13 10-2 3h-2l-1 4-6 4-5 4-2-1 16-15 13-12z" fill="#F5F2EE"/>
<path transform="translate(726,1430)" d="m0 0 5 4 6 4 9 7v2h-8l-8-9-4-6z" fill="#F9F8F6"/>
<path transform="translate(1047,1262)" d="m0 0h1v9h-2l-1 8-7 20-4 4 3-11 5-15 2-4 2-9z" fill="#313137"/>
<path transform="translate(1262,676)" d="m0 0 9 2 18 8 22 12-4 1-22-12-11-5-7-3-5-1z" fill="#F2EEE8"/>
<path transform="translate(831,1026)" d="m0 0 5 1-5 4-3 5-8 6-5-1 2-1 1-5 5-5v2l7-3z" fill="#26262D"/>
<path transform="translate(1073,1218)" d="m0 0h2v24l-1 3-10 4-6 4-2-1 8-6 6-3 2-6z" fill="#2D2D2F"/>
<path transform="translate(478,602)" d="m0 0 5 2 4 5 4 8-1 3-2-2-4-2-8-12z" fill="#6A75A6"/>
<path transform="translate(771,974)" d="m0 0 3 1-4 1-1 2-7 3-11 3-9-1v-1l9-2 11-4z" fill="#767585"/>
<path transform="translate(821,1939)" d="m0 0h2l3 25 3 16v5l-2-3-4-17-1-13-1-3z" fill="#F0ECE5"/>
<path transform="translate(389,1463)" d="m0 0 10 1 13 4 17 5 1 2-8-1-27-8-6-2z" fill="#F1ECE6"/>
<path transform="translate(698,1385)" d="m0 0 3 4 6 10 10 15 3 6-1 2-10-14-11-18z" fill="#3D3F50"/>
<path transform="translate(836,1020)" d="m0 0 7 2-4 4-5 1-3-1-1 4-3 2h-4l2-4 4-4z" fill="#F5F2ED"/>
<path transform="translate(349,1448)" d="m0 0h14l6 2v2l7 2 3 3 9 4 1 2-9-3-16-8-5-2-10 1z" fill="#F1ECE5"/>
<path transform="translate(1018,1084)" d="m0 0 2 1v16l-2 14h-1v-13l-3 13h-1l1-11z" fill="#3E4053"/>
<path transform="translate(971,1017)" d="m0 0 5 2 1 4 16 15 8 7 1 2-4-1-15-15-11-9-3-2v-2z" fill="#363742"/>
<path transform="translate(448,870)" d="m0 0h8l25 3-2 3-4 1h-10v-2l-12-3-5-1z" fill="#F5D982"/>
<path transform="translate(784,1454)" d="m0 0 14 1 35 3v1h-28l-11-1v-2l-10-1z" fill="#41445A"/>
<path transform="translate(960,1748)" d="m0 0h1v5l-12 19-11 19-1-2 9-17z" fill="#F4F1EC"/>
<path transform="translate(1398,1452)" d="m0 0h1l-1 11-4 10-7 20-4 4 1-5 11-29z" fill="#F4F0EB"/>
<path transform="translate(803,1084)" d="m0 0 1 2 4-1 3 3-8 6-3 1-2-4-5 3-2-1 5-4 5-3z" fill="#DCD0BE"/>
<path transform="translate(1173,664)" d="m0 0h19l1 2-5 1-28 1 1-2z" fill="#F6F4F0"/>
<path transform="translate(291,802)" d="m0 0 17 4 19 4 2 2-10-1-7-1-2 3-1-4-10-3-12-2z" fill="#363741"/>
<path transform="translate(1031,720)" d="m0 0 2 1-10 9-8 6-2 4-9 3 4-5 11-9z" fill="#F4F0EB"/>
<path transform="translate(764,707)" d="m0 0 2 1-8 5-12 4-11 4-1 4-2-5 11-5z" fill="#F2EEE8"/>
<path transform="translate(1485,1552)" d="m0 0 1 2-5 6-8 3-1 2-11 3-4-1 18-8z" fill="#F5F2ED"/>
<path transform="translate(323,1529)" d="m0 0h8l-1 2-22 7-10 1 1-2 17-4 1-2z" fill="#F5F3EE"/>
<path transform="translate(996,1161)" d="m0 0 4 2 7 7 10 15 3 4-1 2-5-4-10-16-8-9z" fill="#3A3B4A"/>
<path transform="translate(1518,610)" d="m0 0 7 6 12 19 9 15-1 2-6-10-14-21-7-9z" fill="#E0D6C6"/>
<path transform="translate(915,408)" d="m0 0v3l-8 8-9 11-10 11-4 4 2-5 8-9 7-8 12-14z" fill="#F2EEE8"/>
<path transform="translate(732,524)" d="m0 0h5l-4 3-28 13-2-1 1-2 8-3 3-3 11-2 2-4z" fill="#F1ECE6"/>
<path transform="translate(1202,1711)" d="m0 0h5l-1 3-20 2-7 2-9-1v-1z" fill="#F4F0EB"/>
<path transform="translate(688,1326)" d="m0 0 2 2-8 13 2 1-3 3v5l-4-2 1-6-1-3 5-5z" fill="#45475E"/>
<path transform="translate(587,1167)" d="m0 0 1 3-2 8v16h-2l1 7v5h-2l-1-3 1-18 1-11z" fill="#9897A0"/>
<path transform="translate(660,876)" d="m0 0h1l4 17 1 11v13h-1l-2-16-3-14z" fill="#DDD2C1"/>
<path transform="translate(1218,373)" d="m0 0 3 1v2l33 1v2h-21l-18-2z" fill="#EEE9E1"/>
<path transform="translate(553,1738)" d="m0 0 20 1 24 2v1h-20l-20-1v-2z" fill="#F0ECE5"/>
<path transform="translate(557,1399)" d="m0 0 4 2 7 7 7 6 7 8 3 3-1 2-15-15-8-7-4-4z" fill="#626275"/>
<path transform="translate(655,1334)" d="m0 0 6 1v2h-3l1 4-4 2-6-1-3-2v-2l9-2z" fill="#DED3C2"/>
<path transform="translate(1270,146)" d="m0 0 1 4-2 10-3 24-3 1 1-9 4-26z" fill="#F1EDE6"/>
<path transform="translate(233,654)" d="m0 0 7 3 11 9 4 4 6 3-1 3-16-12-11-8z" fill="#F4F0EB"/>
<path transform="translate(1347,1430)" d="m0 0h6l-3 2-23 8-3-1 7-3 2-3z" fill="#F1ECE6"/>
<path transform="translate(1111,677)" d="m0 0h3v2l-20 7-14 6-3-1 10-5z" fill="#F2EEE8"/>
<path transform="translate(1027,601)" d="m0 0 2 1-15 13-8 8-2-1 4-8 8-4 7-6z" fill="#F5F3EE"/>
<path transform="translate(794,583)" d="m0 0 3 1v9l-2 6-3-3-1-4v-8z" fill="#DFC7A9"/>
<path transform="translate(895,1909)" d="m0 0h1v8l-1 4-2 1-2 16-2 1 1-14 3-15z" fill="#F3EFEA"/>
<path transform="translate(1085,1727)" d="m0 0h8l-1 3-14 1h-19v-1z" fill="#F3EFE9"/>
<path transform="translate(838,1764)" d="m0 0h2l-4 16-5 22h-1v-10l5-19z" fill="#F3F0EA"/>
<path transform="translate(1441,1575)" d="m0 0v3l-11 5-12 5-3-1 3-3 13-5z" fill="#F5F2EE"/>
<path transform="translate(721,1279)" d="m0 0 1 2-7 12-1 4-8 8-1 2h-2v2l-2-1 11-15z" fill="#DCD0BE"/>
<path transform="translate(1550,1077)" d="m0 0 1 3-10 21-8 13-2 1 2-6 12-22z" fill="#EFEAE3"/>
<path transform="translate(970,1734)" d="m0 0 1 4-1 2 11-2h6l-2 2-14 2-5 4-4 1 2-5z" fill="#E5DCD0"/>
<path transform="translate(882,839)" d="m0 0 3 1 1 18v14h-1l-3-24z" fill="#F1ECE5"/>
<path transform="translate(1361,393)" d="m0 0h12l12 3 6 2v2l-12-2-18-4z" fill="#F1EDE6"/>
<path transform="translate(1012,1115)" d="m0 0h1l-1 11-6 22-1-4 3-16z" fill="#353641"/>
<path transform="translate(328,635)" d="m0 0h12v1h-11l-2 12-5 16h-1l1-8 3-14z" fill="#EFE9E1"/>
<path transform="translate(1501,517)" d="m0 0 9 3 16 8-4 1-8-4-7-2-5-3z" fill="#FDEE5F"/>
<path transform="translate(370,1707)" d="m0 0 8 1 17 4v1h-14l-7-1-1-3-3-1z" fill="#F6F3EF"/>
<path transform="translate(1382,1497)" d="m0 0h1l1 10 4 4 4 2v2l-6-2-8-4 1-4z" fill="#F1ECE6"/>
<path transform="translate(865,1475)" d="m0 0 4 3 5 1v1l-11 1-6 1-9-2v-1l17-2z" fill="#4A4C65"/>
<path transform="translate(882,446)" d="m0 0v3l-7 7-4 5-12 3h-2l1-3 11-3z" fill="#EBE4DB"/>
<path transform="translate(274,1595)" d="m0 0 5 1 17 9 7 3v2l-6-1-11-6v-2l-5-1-6-3z" fill="#F5F2ED"/>
<path transform="translate(430,1474)" d="m0 0 8 1 11 2 6 3v2l-10-2-15-4z" fill="#F2EEE8"/>
<path transform="translate(1045,1431)" d="m0 0v3l-11 13-6 8-7 8-1-2 7-8 9-12z" fill="#E2D8CA"/>
<path transform="translate(668,1055)" d="m0 0 1 3-7 15-4 10-2 1 1-6 5-12 5-10z" fill="#2D2D2F"/>
<path transform="translate(131,788)" d="m0 0 7 6 14 11 4 3-6-1-8-7-4-3-5-3-2-2z" fill="#F2EDE7"/>
<path transform="translate(1312,700)" d="m0 0 4 2 11 8 12 10h-3l-19-14-5-4z" fill="#F3F0EA"/>
<path transform="translate(1489,553)" d="m0 0 3 1-9 4-12 6-4-4 16-5z" fill="#F3EFE9"/>
<path transform="translate(846,1454)" d="m0 0 2 1-5 5-5 1-1-1h-20v-1h16v-2l11-2z" fill="#32333B"/>
<path transform="translate(697,1313)" d="m0 0 1 3-9 10-4 2-8 7-5 1 5-4 12-11 5-4z" fill="#C3BAAF"/>
<path transform="translate(887 1e3)" d="m0 0h5l-4 4 3 1-11 2-7-1 3-2z" fill="#2D2E36"/>
<path transform="translate(427,880)" d="m0 0h9l-1 3h-18l-17-1v-1z" fill="#EFE9E2"/>
<path transform="translate(982,765)" d="m0 0 2 1-10 13-3 6-5 5-3 2 2-5 6-8 10-13z" fill="#F5F1ED"/>
<path transform="translate(959,678)" d="m0 0 1 2-8 14-7 17h-1v-6l4-7 3-9z" fill="#F1ECE5"/>
<path transform="translate(457,1467)" d="m0 0 4 2 2 2-1 1 6 2 6 4 5 5-5-1-6-5-7-3-5-5z" fill="#445391"/>
<path transform="translate(961,793)" d="m0 0 1 3-7 11-3 1-2 4-6 5-6 2 4-4 6-4 12-16z" fill="#F0EBE4"/>
<path transform="translate(984,601)" d="m0 0 3 1-10 6-7 2-9 1 2-2z" fill="#F3F0EA"/>
<path transform="translate(627,1323)" d="m0 0 5 2 8 3 3 1-3 5 1 2-4-2v-3l-11-5z" fill="#414356"/>
<path transform="translate(847,1015)" d="m0 0 7 1v2l-5 3-5 1-6-2 3-3z" fill="#F5F3EE"/>
<path transform="translate(827,1815)" d="m0 0 1 4-4 29h-1v-16l2-13z" fill="#F0EBE4"/>
<path transform="translate(1378,1509)" d="m0 0 10 4 10 5-2 1-14-3-4-4z" fill="#FDEE5F"/>
<path transform="translate(1310,1376)" d="m0 0 1 4-15 12-3 5-5 1 6-7 9-8 5-4z" fill="#F6F3EF"/>
<path transform="translate(1112,1354)" d="m0 0 2 1-7 7-14 16-1-2 6-8 5-4 6-9z" fill="#E1D7C7"/>
<path transform="translate(1008,306)" d="m0 0 3 1-14 15-9 10v-3l6-8 10-9z" fill="#EEE9E1"/>
<path transform="translate(1264,184)" d="m0 0 1 4-5 19-2 2 1-10 3-14z" fill="#F4F1EC"/>
<path transform="translate(724,1269)" d="m0 0h2v15l-3 5h-2l2-17z" fill="#DCD0BE"/>
<path transform="translate(601,1145)" d="m0 0h4v5l-3 7-2 1-2 8h-1l1-9z" fill="#7A7882"/>
<path transform="translate(652,1042)" d="m0 0v3l-5 5-2 6-5 5-7 6 2-4 8-10 4-6z" fill="#B0ADB2"/>
<path transform="translate(740,998)" d="m0 0 10 3 16 7-3 1-17-5-1-2-4-1z" fill="#3E4053"/>
<path transform="translate(1057,699)" d="m0 0 4 1-20 13-4 3-2-1 2-3 11-6 5-5z" fill="#EC7C4D"/>
<path transform="translate(678,551)" d="m0 0 3 1-24 11-2 1 1-5 13-3 1-3z" fill="#EAE3D9"/>
<path transform="translate(1201,323)" d="m0 0h2l-2 5-9 12-6 9-3-1 15-20z" fill="#F6F3EF"/>
<path transform="translate(1524,525)" d="m0 0 10 2 5 5 3 4-5-2-13-7z" fill="#F7F4F1"/>
<path transform="translate(585,507)" d="m0 0 4 5 4 7-2 2-6-5v-3h-2v-4h2z" fill="#656F9D"/>
<path transform="translate(1420,1528)" d="m0 0 15 2 7 3 1 3-11-3-12-3z" fill="#F3EFE2"/>
<path transform="translate(501,1492)" d="m0 0h10l5 1-3 2-11 3-4-1 2-1z" fill="#F3D671"/>
<path transform="translate(1180,1279)" d="m0 0h2l-2 4-8 8-7 8-6 5 2-4 11-12 4-5z" fill="#E4DBCE"/>
<path transform="translate(708,1141)" d="m0 0h7v2l-7 3-6 1v-2h-6l2-2z" fill="#DCD0BE"/>
<path transform="translate(821,480)" d="m0 0h9v1l-9 2-17 8-2-1 3-3 8-3 4-3z" fill="#F0EBE3"/>
<path transform="translate(1254,214)" d="m0 0 1 4-8 22-3 7-1-3 2-7 4-9z" fill="#EC7C4D"/>
<path transform="translate(646,1332)" d="m0 0 9 2v2l-5 2h-4l-1 2-4-4z" fill="#43465D"/>
<path transform="translate(218,720)" d="m0 0 2 3 5 18-1 3-3-3-3-15z" fill="#F3F0EA"/>
<path transform="translate(1397,1289)" d="m0 0 1 4-8 7h-2l-2 4-5 6-3-1 8-8 7-8z" fill="#EFEAE2"/>
<path transform="translate(874,1147)" d="m0 0 5 5 7 9-2 2-2-2-2 1-4-7-1-5z" fill="#303137"/>
<path transform="translate(727,941)" d="m0 0h4l-2 4-6 8h-3l2-5 4-6z" fill="#6F728B"/>
<path transform="translate(665,920)" d="m0 0h1v17l-1 3-4 3 1-9z" fill="#817F89"/>
<path transform="translate(682,1432)" d="m0 0 4 2 11 6 2 5-4-1-13-10z" fill="#28282C"/>
<path transform="translate(1415,1269)" d="m0 0v3l-6 9-5 4-3 3-2-1 7-8z" fill="#F1ECE6"/>
<path transform="translate(810,1092)" d="m0 0 11 7 7 6h-3l-9-6h-4v-2h-2l-1-4z" fill="#4A4C64"/>
<path transform="translate(888 1e3)" d="m0 0h6l-4 2-21 7-2-1-1-2 20-5z" fill="#DFD4C4"/>
<path transform="translate(883,975)" d="m0 0 10 1 1 3-1 2-7-1-5-1-1-3z" fill="#424249"/>
<path transform="translate(937,730)" d="m0 0 1 4-4 21-1 9h-1v-11l1-11z" fill="#EDE7DE"/>
<path transform="translate(1336,386)" d="m0 0 18 3 1 3-13-2-11-2v-1z" fill="#F0EBE4"/>
<path transform="translate(618,1320)" d="m0 0 5 1 4 2-1 2h-9l-2 5-2 1 2-8h2z" fill="#303035"/>
<path transform="translate(891,725)" d="m0 0h1l-1 14-2 4-3 1 3-15z" fill="#F7F5F2"/>
<path transform="translate(1236,262)" d="m0 0h2l-3 9-6 11-3 2 2-6z" fill="#F3EFE9"/>
<path transform="translate(955,1545)" d="m0 0h2l-2 4-9 12-3 3h-6l4-2 7-7z" fill="#F1EDE6"/>
<path transform="translate(1503,1159)" d="m0 0 2 1-14 20h-2l2-5z" fill="#F2EEE9"/>
<path transform="translate(1059,1136)" d="m0 0 2 3 4 13v8l-2-3-3-10-1-3z" fill="#32333B"/>
<path transform="translate(1530,1115)" d="m0 0 1 2-12 22-3 1 2-5z" fill="#F2EEE7"/>
<path transform="translate(857,1011)" d="m0 0h9l-3 3-4 2-7-1-2-2z" fill="#F0ECE5"/>
<path transform="translate(165,814)" d="m0 0 14 7 5 2-5 5v-3l-10-6-4-4z" fill="#F2EEE9"/>
<path transform="translate(263,677)" d="m0 0h6l5 3v2l5 2 1 3-5-2-12-7z" fill="#F4F1ED"/>
<path transform="translate(704,1812)" d="m0 0h1v13l-2 3-3 16h-1l1-11 2-9 1-10z" fill="#A8A7B4"/>
<path transform="translate(1369,1676)" d="m0 0 4 1-3 2-19 3h-6v-1l17-4z" fill="#EFE9E2"/>
<path transform="translate(702,1314)" d="m0 0h2l-1 4-5 6-2-2 2-4zm-10 8h2l1 3-4 1-2 1 2-4z" fill="#34343D"/>
<path transform="translate(305,911)" d="m0 0v3l-9 11-9 13-1-2 8-12z" fill="#F4F0EB"/>
<path transform="translate(282,688)" d="m0 0 9 1 5 3 4 4-6-1-12-6z" fill="#F8F6F3"/>
<path transform="translate(1375,1631)" d="m0 0 4 5 3 12v7h-1l-5-17z" fill="#F3EFE9"/>
<path transform="translate(1562,1054)" d="m0 0 1 2-8 17-4 5 1-5 8-18z" fill="#F6F3EF"/>
<path transform="translate(342,878)" d="m0 0 4 1-12 8-11 9-2-1 13-11 6-4h2z" fill="#F3F0EA"/>
<path transform="translate(1247)" d="m0 0 2 1 7 20-1 3-4-8-3-8z" fill="#EC7C4D"/>
<path transform="translate(1044,1732)" d="m0 0h5v2l-2 1-17 1-2-2z" fill="#F3F0EA"/>
<path transform="translate(942,613)" d="m0 0 1 2-2 5 10-4-1 4-14 4 2-5z" fill="#E4DBCB"/>
<path transform="translate(337,1698)" d="m0 0 10 2 13 3v1l-14-1-8-2z" fill="#F3EFEA"/>
<path transform="translate(621,1086)" d="m0 0v3l-5 9-5 3 2-6 5-8z" fill="#858492"/>
<path transform="translate(876 1e3)" d="m0 0h5l-3 2-10 3 1 3-11-1 4-3 8-3z" fill="#3D3F50"/>
<path transform="translate(111,772)" d="m0 0 6 4 5 5 6 4v1l-7-1-2-4-3-1-5-6z" fill="#F7F5F2"/>
<path transform="translate(360,639)" d="m0 0h10l14 2v2h-9l-15-3z" fill="#EBE5DB"/>
<path transform="translate(481,628)" d="m0 0h5l-4 2-8 2-13 1v-2z" fill="#F2EEE8"/>
<path transform="translate(1262,1700)" d="m0 0h8v2l-14 2h-9v-1z" fill="#F3F0EB"/>
<path transform="translate(303,1609)" d="m0 0 5 1 16 7-3 1-12-3-3-3-3-1z" fill="#F3EFE9"/>
<path transform="translate(1441,1240)" d="m0 0 1 3-4 6-5 3-4 4v-3z" fill="#F1EDE6"/>
<path transform="translate(1264,1184)" d="m0 0v3l-9 10-6 8-1-2 4-6z" fill="#EDE8DF"/>
<path transform="translate(611,1178)" d="m0 0h2l-1 6-6 15-1-4 3-9z" fill="#32323A"/>
<path transform="translate(621,1313)" d="m0 0 2 3 1 5 2 1-8-1-3 1v-5l6-1z" fill="#DCD0BE"/>
<path transform="translate(1310,1442)" d="m0 0h5l-3 2-5 2-13 2 4-4z" fill="#EEE9E1"/>
<path transform="translate(722,1281)" d="m0 0 1 3-3 7-4 4h-2l2-6z" fill="#F9F7F4"/>
<path transform="translate(610,1125)" d="m0 0h1l-1 10-2 5-5 5 1-5z" fill="#9F9999"/>
<path transform="translate(739,983)" d="m0 0h7l5 1-4 3-3 1-8-1z" fill="#3C3C3F"/>
<path transform="translate(903,980)" d="m0 0 11 2-4 1v2l3 1-4 1-6-2-1-3z" fill="#56565F"/>
<path transform="translate(698,541)" d="m0 0 3 1-18 9-2-1 3-3 6-2 1-3z" fill="#EDE8DF"/>
<path transform="translate(1065,1156)" d="m0 0 2 4 2 7v9l-2-2-3-14z" fill="#353640"/>
<path transform="translate(825,822)" d="m0 0 4 4 9 14v3l-5-5-6-11z" fill="#EFE9E1"/>
<path transform="translate(1050,706)" d="m0 0 2 1-9 7-8 6-3-1 9-7z" fill="#F1EDE6"/>
<path transform="translate(1473,1542)" d="m0 0h7l5 3 1 2-16-3z" fill="#F2EDE7"/>
<path transform="translate(1386,1414)" d="m0 0 4 1-20 9h-2v-2l10-4 4-3z" fill="#EBE4DA"/>
<path transform="translate(666,1337)" d="m0 0 3 1-10 6h-3v2h-2v-2l-5-1 2-1 5-1z" fill="#3D3F52"/>
<path transform="translate(708 1e3)" d="m0 0 2 1-14 9-7 4-2-1 14-9z" fill="#DCD0BE"/>
<path transform="translate(771,974)" d="m0 0 3 1-4 1-1 2-7 3-5-1 4-2 1-2z" fill="#666674"/>
<path transform="translate(904,687)" d="m0 0 1 3-1 7-4 3h-2l4-12z" fill="#F9F8F6"/>
<path transform="translate(465,632)" d="m0 0 4 1-17 4h-6l3-3z" fill="#E9E2D7"/>
<path transform="translate(835,471)" d="m0 0h8l-3 3-9 5 1-6z" fill="#F2EFE9"/>
<path transform="translate(226,1553)" d="m0 0 14 14-2 1-7-6-3-2-2-4z" fill="#F2EEE8"/>
<path transform="translate(331,1511)" d="m0 0h1l3 13 1 4-5 2z" fill="#F1EDE7"/>
<path transform="translate(687,1325)" d="m0 0 1 3-7 9h-5l6-7z" fill="#F6F3EF"/>
<path transform="translate(667,918)" d="m0 0 2 4-1 13-2 2v-18z" fill="#49599A"/>
<path transform="translate(1390,798)" d="m0 0 2 3 5 14-1 3-5-11-2-7z" fill="#F2EEE8"/>
<path transform="translate(930,791)" d="m0 0h1l1 23-2-2-2-7 1-7z" fill="#EEE8E0"/>
<path transform="translate(639,568)" d="m0 0h6l-4 3-8 3-2-5z" fill="#F0EBE3"/>
<path transform="translate(1430,417)" d="m0 0h1v7l-6 12-3 1 2-5z" fill="#F2EEE8"/>
<path transform="translate(1179,353)" d="m0 0 1 2-3 6h-2v2l-7 7v-3z" fill="#F7F4F0"/>
<path transform="translate(1250,1432)" d="m0 0h2l-4 8-7 3h-3z" fill="#F6F4F0"/>
<path transform="translate(663 1e3)" d="m0 0 1 2-2 1 1 2-9 5h-2l2-5z" fill="#ABA5A4"/>
<path transform="translate(1339,721)" d="m0 0 7 6 8 8-1 2-13-12z" fill="#F0EBE4"/>
<path transform="translate(915,408)" d="m0 0v3l-8 8-6 7v-3l12-14z" fill="#F1EDE6"/>
<path transform="translate(1263,43)" d="m0 0 2 1 2 9v12h-1l-3-17z" fill="#F2EEE8"/>
<path transform="translate(932,1799)" d="m0 0 1 3-7 16-3 1 2-6z" fill="#F2EFE9"/>
<path transform="translate(1471,1561)" d="m0 0h2l-1 4-11 3-4-1z" fill="#F6F4F0"/>
<path transform="translate(846,1457)" d="m0 0 4 2v3l-5-1-10 2h-8v-1l16-3z" fill="#414359"/>
<path transform="translate(1025,1203)" d="m0 0 4 1 2 3 3 12-3-3z" fill="#42455C"/>
<path transform="translate(680,1140)" d="m0 0 11 7 6 7-4-2-11-8z" fill="#474A65"/>
<path transform="translate(1e3 1119)" d="m0 0 1 4-1 3-1 9-3-3 1-5z" fill="#F6F4F0"/>
<path transform="translate(1007,1112)" d="m0 0 2 4v2h-2l1 4-2 9-3 1 2-10z" fill="#34353F"/>
<path transform="translate(736,998)" d="m0 0 2 2 3 1 5 1v2l4 1-15-1z" fill="#DCD0BE"/>
<path transform="translate(589,780)" d="m0 0 3 1-3 3-8 2h-7l3-2z" fill="#F5F2EE"/>
<path transform="translate(780,719)" d="m0 0h2l3 13-1 4-4-10z" fill="#F6F4F0"/>
<path transform="translate(463,1727)" d="m0 0h10l9 2v1h-10l-9-1z" fill="#F8F6F3"/>
<path transform="translate(298,1537)" d="m0 0m-1 1 4 2-14 3h-4l1-3z" fill="#F0ECE5"/>
<path transform="translate(372,1453)" d="m0 0 5 2 5 3 7 4-2 1-17-8z" fill="#EFEAE3"/>
<path transform="translate(1031,1209)" d="m0 0 3 4 4 9v6l-3-4-2-5z" fill="#373945"/>
<path transform="translate(1594,934)" d="m0 0h1l-1 14-3 1 1-12z" fill="#F5F2EE"/>
<path transform="translate(886,873)" d="m0 0 4 2v13l-2 1z" fill="#F2EEE8"/>
<path transform="translate(824,1967)" d="m0 0h2l3 13v5l-2-3-3-11z" fill="#F3EFE9"/>
<path transform="translate(1183,1714)" d="m0 0h5l-3 3-12 1-3-2z" fill="#F0EBE4"/>
<path transform="translate(961,1012)" d="m0 0 6 2 7 2 1 2-7 1-7-5z" fill="#5A5B67"/>
<path transform="translate(1576,717)" d="m0 0 3 4 3 9-1 4-2-3-3-9z" fill="#F0EBE4"/>
<path transform="translate(999,1486)" d="m0 0 3 1-11 14v-3l7-11z" fill="#EEE8DF"/>
<path transform="translate(1308,1126)" d="m0 0v3l-10 14-1-4 3-4h2l2-4z" fill="#EDE7DE"/>
<path transform="translate(599,1129)" d="m0 0 1 3-5 15-2-4 5-13z" fill="#454861"/>
<path transform="translate(616,1102)" d="m0 0 2 4-4 9-2-1 1-7z" fill="#080807"/>
<path transform="translate(1023,1068)" d="m0 0h3l6 8v2l-4-1-4-5z" fill="#75747C"/>
<path transform="translate(1352,1056)" d="m0 0 1 2-9 15h-1v-5z" fill="#EFE9E1"/>
<path transform="translate(607,773)" d="m0 0 4 2 5 7-1 2-7-7-6-1 2-2z" fill="#F4F0EB"/>
<path transform="translate(221,644)" d="m0 0 5 1 5 5 2 4-4-2-8-7z" fill="#F2EDE7"/>
<path transform="translate(989,637)" d="m0 0v3l-9 10-4 4 2-5 9-10z" fill="#F1ECE5"/>
<path transform="translate(985,332)" d="m0 0 2 1-13 13-1-2 7-8z" fill="#F2EDE7"/>
<path transform="translate(258,1584)" d="m0 0 4 1 8 6 6 3-4 1-10-7z" fill="#F1EDE6"/>
<path transform="translate(655,1407)" d="m0 0 4 2 8 8v2l-4-2-5-5v-2l-3-1z" fill="#42445B"/>
<path transform="translate(795,581)" d="m0 0h11v2h-6l-2-1v2h-7l-1 3 1-5z" fill="#E87B45"/>
<path transform="translate(787,579)" d="m0 0 18 1v1l-14 2-2 3z" fill="#363742"/>
<path transform="translate(220,1530)" d="m0 0h2v3l4 1v2l-12-3-1-2z" fill="#F3EFEA"/>
<path transform="translate(653,1124)" d="m0 0 6 4 4 2v2l3 1v2l-5-2-8-6z" fill="#1B1B1F"/>
<path transform="translate(1124,673)" d="m0 0h5v2l-12 3h-3v-2z" fill="#F4F1EC"/>
<path transform="translate(745,515)" d="m0 0h8v2l-8 4-2-1z" fill="#F4F1EC"/>
<path transform="translate(1267,65)" d="m0 0h1l2 10v12h-1v-9h-2z" fill="#EACCB9"/>
<path transform="translate(831,1798)" d="m0 0 2 2 1 4-2 5-3 1 1-8z" fill="#E9865B"/>
<path transform="translate(960,1748)" d="m0 0h1v5l-6 9h-2l2-5z" fill="#F6F3EF"/>
<path transform="translate(1014,1674)" d="m0 0h2v2l6-1-4 3-9 2z" fill="#E0D1AE"/>
<path transform="translate(1309,1444)" d="m0 0 2 1-4 3-14 1 4-2 11-2z" fill="#EC7C4D"/>
<path transform="translate(1330,1356)" d="m0 0v3l-9 11-4 1 6-7z" fill="#EAE3D8"/>
<path transform="translate(652,1336)" d="m0 0h5v3l-10 2-1-3z" fill="#F5F2ED"/>
<path transform="translate(475,1322)" d="m0 0 4 2 3 3v2l4 2 3 4-4-1-10-11z" fill="#ABA8AC"/>
<path transform="translate(697,1313)" d="m0 0 1 3-9 10-2-2 7-7z" fill="#DCD0BE"/>
<path transform="translate(1453,1227)" d="m0 0v3l-3 4h-2l-2 4-4 1 6-7z" fill="#F5F2ED"/>
<path transform="translate(1231,1223)" d="m0 0 2 1-3 1-2 4-5 5 3-9z" fill="#ECE6DC"/>
<path transform="translate(612,896)" d="m0 0 3 3v9l-3-1z" fill="#4C537A"/>
<path transform="translate(328,635)" d="m0 0h12v1h-11l-1 8-3 1 1-5z" fill="#EBE4DA"/>
<path transform="translate(438,635)" d="m0 0h9l-1 3-13 1v-1l5-1z" fill="#F4F0EB"/>
<path transform="translate(732,524)" d="m0 0h5l-4 3-8 4-2-1 3-1 2-4z" fill="#EEE9E1"/>
<path transform="translate(1413,1586)" d="m0 0 3 1-2 2-9 3-4-1 3-2z" fill="#F2EEE8"/>
<path transform="translate(1424,1582)" d="m0 0h3v2l-9 4-3-1 3-3z" fill="#F7F4F1"/>
<path transform="translate(967,1529)" d="m0 0 2 1-7 10-1-4 2-6z" fill="#F4F1EC"/>
<path transform="translate(1015,1468)" d="m0 0v3l-8 10-2 2 1-6 5-4z" fill="#EAE3D9"/>
<path transform="translate(938,1455)" d="m0 0h6l-5 4-8 2 1-3z" fill="#848492"/>
<path transform="translate(1089,1380)" d="m0 0v3l-11 12v-3l7-9z" fill="#E0D6C6"/>
<path transform="translate(1485,1183)" d="m0 0 1 3-3 5-3 4-3-1z" fill="#F3F0EA"/>
<path transform="translate(1047,1114)" d="m0 0 5 1 2 5-1 4-4-5z" fill="#242527"/>
<path transform="translate(1373,766)" d="m0 0h3l7 14-2 1-8-14z" fill="#F3F0EA"/>
<path transform="translate(972,346)" d="m0 0v3l-9 9-1-2 3-5 6-4z" fill="#F1EDE6"/>
<path transform="translate(318,1693)" d="m0 0 9 1 7 2v1l-14-1z" fill="#F2EEE7"/>
<path transform="translate(1427,1256)" d="m0 0v3l-2 6-6 1 6-8z" fill="#F3EFEA"/>
<path transform="translate(808,1068)" d="m0 0 1 4-3 9-2-1-2 3 1-5 2-4h2z" fill="#DED3C2"/>
<path transform="translate(643,1065)" d="m0 0h2l-1 6-5 5-1-4 3-2z" fill="#5B5B69"/>
<path transform="translate(1e3 1048)" d="m0 0 4 2 7 8v2l-4-2-7-8z" fill="#363843"/>
<path transform="translate(1579 1e3)" d="m0 0 1 3-4 11h-2l3-11z" fill="#F9F7F5"/>
<path transform="translate(886 1e3)" d="m0 0h9l-1 2-8 2-7-1v-1z" fill="#35363F"/>
<path transform="translate(1585,975)" d="m0 0 2 4-2 11-3 1 2-11z" fill="#F3EFEA"/>
<path transform="translate(1520,545)" d="m0 0 3 1-5 3-8 1-2-2z" fill="#F1ECE5"/>
<path transform="translate(1008,306)" d="m0 0 3 1-12 13v-3l6-7z" fill="#EFEAE3"/>
<path transform="translate(740,1883)" d="m0 0h2l-2 4-7 7-2-1z" fill="#928E93"/>
<path transform="translate(418,1470)" d="m0 0 11 3 1 2-8-1-8-2z" fill="#EBE5DB"/>
<path transform="translate(1297,1388)" d="m0 0 2 1-3 3-3 5-5 1 6-7z" fill="#F1EDE7"/>
<path transform="translate(489,1335)" d="m0 0 4 2 8 8-3 1-9-10z" fill="#A3A0A5"/>
<path transform="translate(632,1067)" d="m0 0 1 2-2 5-2 3-4 1 2-5z" fill="#9B9AA3"/>
<path transform="translate(939 1e3)" d="m0 0 8 4-1 2-5-1-4-2v-2z" fill="#DED3C2"/>
<path transform="translate(1031,720)" d="m0 0 2 1-10 9-2-1 5-5z" fill="#F6F4F0"/>
<path transform="translate(205,635)" d="m0 0h12l2 7-7-5-7-1z" fill="#EDE7DE"/>
<path transform="translate(1027,601)" d="m0 0 2 1-13 11v-3l7-6z" fill="#F4F0EB"/>
<path transform="translate(1510,519)" d="m0 0 5 1 9 5-1 2-13-6z" fill="#EFEAE2"/>
<path transform="translate(1324,384)" d="m0 0 11 1 1 2h-11z" fill="#F7F5F2"/>
<path transform="translate(967,1739)" d="m0 0 1 2 3 1-5 4-4 1 2-5z" fill="#F8F7F4"/>
<path transform="translate(1388,1482)" d="m0 0h1l-1 8-4 7-1-3z" fill="#F2EEE8"/>
<path transform="translate(1293,1446)" d="m0 0 2 1-5 3-9 1 2-2z" fill="#F5F2ED"/>
<path transform="translate(1374,1313)" d="m0 0 1 2-4 6-5 5-2-1z" fill="#F1ECE6"/>
<path transform="translate(601,1119)" d="m0 0 2 3-2 7-3 1 1-6z" fill="#8C8C99"/>
<path transform="translate(669,1036)" d="m0 0 2 1 2 2 3 2-8 1-2-2z" fill="#DCD0BE"/>
<path transform="translate(910,983)" d="m0 0 7 1 1 4-4 1-2-2z" fill="#2B2C30"/>
<path transform="translate(1589,964)" d="m0 0 1 4-3 9h-1l1-11z" fill="#F7F5F2"/>
<path transform="translate(982,765)" d="m0 0 2 1-9 11-2-1z" fill="#F1ECE6"/>
<path transform="translate(1354,737)" d="m0 0 5 4 5 7h-3l-4-5-3-3z" fill="#F3F0EB"/>
<path transform="translate(959,678)" d="m0 0 1 2-7 12-2-1 2-5z" fill="#F5F2ED"/>
<path transform="translate(658,558)" d="m0 0h6v2l-9 4 1-5z" fill="#F6F3EF"/>
<path transform="translate(760,509)" d="m0 0h5v2l-10 5h-2v-2l5-2z" fill="#EEE9E1"/>
<path transform="translate(928,393)" d="m0 0v3l-7 8-3 2 2-4z" fill="#F7F5F2"/>
<path transform="translate(457,1467)" d="m0 0 4 2 2 2-1 1 4 4-5-2-5-5z" fill="#A8ABC1"/>
<path transform="translate(1400,1404)" d="m0 0h2l-1 5-5 4-6 1 4-3 5-4z" fill="#E7DFD4"/>
<path transform="translate(1169,1291)" d="m0 0h2l-2 4-9 9v-3l7-7z" fill="#E5DCCF"/>
<path transform="translate(1537,1102)" d="m0 0h2l-2 6-5 7-1-2z" fill="#F4F1EC"/>
<path transform="translate(831,1026)" d="m0 0 5 1-5 4-3 5h-2l1-5 3-2z" fill="#2B2C37"/>
<path transform="translate(934,1010)" d="m0 0 5 2 6 4v1h-5l-1-3-4-1z" fill="#AEA6A2"/>
<path transform="translate(648,1008)" d="m0 0h4v3l-9 3 3-5z" fill="#84828E"/>
<path transform="translate(735,931)" d="m0 0 1 3-4 7-2-4z" fill="#7A7883"/>
<path transform="translate(907,675)" d="m0 0h1l-1 9-1 3-3 1 1-5z" fill="#F3EFEA"/>
<path transform="translate(233,654)" d="m0 0 7 3 4 4-1 2-10-7z" fill="#F0EBDF"/>
<path transform="translate(929,634)" d="m0 0 1 3-4 7-3 1 2-5z" fill="#F8F6F4"/>
<path transform="translate(487,618)" d="m0 0 5 5 1 4-6 1 2-1z" fill="#F2EEE7"/>
<path transform="translate(1518,610)" d="m0 0 7 6 3 6-4-2-6-8z" fill="#E5DCCF"/>
<path transform="translate(1e3 595)" d="m0 0 4 1-2 2-9 2-4-1z" fill="#F2EEE7"/>
<path transform="translate(1441,489)" d="m0 0 9 3 1 3-9-3-3-2z" fill="#F2EEE7"/>
<path transform="translate(1218,373)" d="m0 0 3 1v2l7 1v1l-13-1z" fill="#F3EFEA"/>
<path transform="translate(1264,184)" d="m0 0 1 4-2 6-2 1 1-10z" fill="#F3EFEA"/>
<path transform="translate(1356,1410)" d="m0 0 2 2h-2z" fill="#DCD0BE"/>
</svg>
